<?xml version="1.0" encoding="utf-8"?>
<!-- Generator: Adobe Illustrator 19.1.1, SVG Export Plug-In . SVG Version: 6.00 Build 0)  -->
<svg version="1.1" id="Layer_1" xmlns="http://www.w3.org/2000/svg" xmlns:xlink="http://www.w3.org/1999/xlink" x="0px" y="0px"
	 viewBox="-387 315 185 60" style="enable-background:new -387 315 185 60;" xml:space="preserve">
<style type="text/css">
	.st0{fill:#E6E6E4;}
	.st1{display:none;fill:#E6E6E4;}
	.st2{font-family:'1stEnterprisesCondensed';}
	.st3{font-size:8.3179px;}
</style>
<g>
	<g>
		<path class="st0" d="M-302.7,366.6c-0.6,0.5-1.2,1-1.8,1.3c-0.5,0.3-1,0.5-1.4,0.5c-0.4,0-0.8-0.1-1.3-0.2
			c-0.5-0.2-0.9-0.4-1.3-0.6c-0.7-0.5-1.2-1.1-1.6-1.8c-0.4-0.7-0.6-1.5-0.6-2.3c0-0.8,0.2-1.6,0.6-2.3c0.4-0.7,1-1.4,1.8-1.9
			c0.6-0.4,1.2-0.7,1.8-0.9c0.7-0.2,1.3-0.3,1.9-0.3c0.5,0,0.9,0.1,1.3,0.2c0.3,0.2,0.5,0.3,0.5,0.6c0,0.1-0.1,0.3-0.2,0.4
			c-0.1,0.1-0.4,0.4-0.9,0.7l-0.7,0.5c-0.3-0.3-0.5-0.6-0.9-0.7c-0.3-0.2-0.7-0.2-1-0.2c-0.6,0-1.1,0.2-1.5,0.7s-0.6,1.1-0.6,1.9
			c0,0.6,0.1,1.1,0.3,1.6c0.2,0.5,0.5,1,0.8,1.4c0.4,0.5,0.9,0.9,1.5,1.2c0.6,0.3,1.2,0.4,1.9,0.4c0.2,0,0.4,0,0.6,0
			c0.2,0,0.4-0.1,0.6-0.1L-302.7,366.6z"/>
		<path class="st0" d="M-296,368.4c-0.5-1.2-1-2-1.6-2.5c-0.6-0.5-1.3-0.8-2.1-0.8c-0.3,0-0.6,0.1-0.7,0.2c-0.2,0.1-0.3,0.3-0.3,0.4
			c0,0.3,0.2,0.6,0.6,0.8c0.4,0.2,0.8,0.3,1.3,0.3c0.2,0,0.4,0,0.5-0.1c0.2,0,0.3-0.1,0.5-0.2l0.2,0.3c-0.5,0.5-1,0.9-1.5,1.2
			c-0.5,0.3-0.9,0.4-1.3,0.4c-0.5,0-1-0.2-1.4-0.5c-0.4-0.3-0.6-0.7-0.6-1.1c0-0.6,0.4-1.2,1.1-1.7c0.7-0.5,1.7-0.9,2.8-1.1
			c-0.2-0.5-0.5-0.8-0.8-1.1c-0.3-0.3-0.6-0.4-0.8-0.4c-0.1,0-0.2,0-0.3,0c-0.1,0-0.2,0.1-0.3,0.1l-0.2-0.3l1.5-1.1
			c0.2-0.2,0.4-0.3,0.5-0.3c0.1-0.1,0.2-0.1,0.3-0.1c0.4,0,0.9,0.5,1.6,1.5c0.7,1,1.6,2.6,2.6,4.7L-296,368.4z"/>
		<path class="st0" d="M-293,368.4c0-0.2,0-0.4,0-0.6c0-0.2,0-0.6,0-1c0-1.8,0-2.9-0.1-3.3c-0.1-0.4-0.3-0.6-0.5-0.6
			c-0.1,0-0.2,0-0.3,0c-0.1,0-0.2,0.1-0.3,0.1l-0.1-0.3l1.4-1c0.4-0.3,0.6-0.4,0.8-0.5c0.2-0.1,0.3-0.1,0.4-0.1
			c0.5,0,0.8,1.3,0.8,3.8c0,1,0,1.7,0,2.3L-293,368.4z M-291.9,358.2c0.2,0.3,0.4,0.6,0.6,0.8c0.2,0.2,0.4,0.3,0.7,0.3l-0.5,0.4
			c0,0-0.1,0.1-0.2,0.1c-0.6,0.4-1,0.7-1.2,0.7c-0.2,0-0.4-0.1-0.6-0.2c-0.2-0.2-0.4-0.4-0.5-0.7L-291.9,358.2z"/>
		<path class="st0" d="M-288.7,368.4c0-0.2,0-0.3,0-0.5c0,0,0-0.1,0-0.1c0-2.1-0.1-3.5-0.2-4.1c-0.1-0.6-0.3-0.9-0.5-0.9
			c-0.1,0-0.2,0-0.2,0c-0.1,0-0.2,0.1-0.3,0.2l-0.2-0.4l1.8-1.2c0.2-0.2,0.4-0.3,0.6-0.3c0.1-0.1,0.3-0.1,0.4-0.1
			c0.2,0,0.4,0.1,0.5,0.3c0.1,0.2,0.1,0.6,0.1,1.1c0,0,0,0.1,0,0.2c0,0.1,0,0.2,0,0.2c0.5-0.6,1-1,1.4-1.4s0.7-0.5,0.9-0.5
			c0.2,0,0.4,0.1,0.6,0.4c0.2,0.3,0.3,0.7,0.5,1.2l-1.8,1.4c-0.1-0.4-0.2-0.6-0.3-0.8c-0.1-0.2-0.3-0.3-0.5-0.3
			c-0.3,0-0.5,0.1-0.6,0.4c-0.1,0.3-0.2,1-0.2,2.2v0.3l0,1.4L-288.7,368.4z"/>
		<path class="st0" d="M-282,363c-0.1,0.2-0.2,0.4-0.3,0.6c-0.1,0.2-0.1,0.4-0.1,0.7c0,0.7,0.2,1.2,0.6,1.8c0.4,0.5,0.9,0.8,1.4,0.8
			c0.3,0,0.6-0.1,0.8-0.3c0.2-0.2,0.3-0.5,0.3-0.9c0-0.4-0.1-0.7-0.2-1.1c-0.2-0.4-0.4-0.8-0.6-1.1c-0.3-0.3-0.5-0.6-0.9-0.7
			c-0.3-0.2-0.7-0.2-1-0.2c-0.1,0-0.3,0-0.4,0c-0.1,0-0.3,0-0.4,0.1l-0.1-0.3c0.6-0.4,1.1-0.7,1.5-0.9c0.4-0.2,0.8-0.3,1.2-0.3
			c0.7,0,1.3,0.3,1.8,0.9c0.5,0.6,0.8,1.3,0.8,2.1c0,0.5-0.1,0.9-0.3,1.3c-0.2,0.4-0.5,0.9-1,1.3c-0.5,0.5-1,1-1.5,1.2
			c-0.5,0.3-0.9,0.4-1.3,0.4c-0.7,0-1.3-0.3-1.8-0.9c-0.5-0.6-0.8-1.3-0.8-2c0-0.5,0.1-0.9,0.4-1.3c0.3-0.4,0.8-0.9,1.6-1.4
			L-282,363z"/>
	</g>
	<g>
		<path class="st1" d="M-252.7,297.8c0-1.2,0.5-1.8,1.1-1.8s1.1,0.6,1.1,1.8c0,1.2-0.5,1.8-1.1,1.8S-252.7,299-252.7,297.8z
			 M-251.2,297.7c0-1-0.3-1.2-0.5-1.2c-0.2,0-0.5,0.1-0.5,1.2c0,0.8,0.3,1.1,0.5,1.1C-251.4,298.8-251.2,298.5-251.2,297.7z"/>
	</g>
	<g>
		<path class="st0" d="M-350.2,339.1c1.2-6.2,2.3-12.4,3.5-18.7c3.4,0,6.8-0.1,10.2,0.1c0,0.4-0.1,0.5-0.5,0.4c-0.3,0-0.6-0.1-0.9,0
			c0.6,0.2,1.3,0.4,2,0.7c-0.2,0.2-0.4,0.4-0.7,0.7c0.6-0.3,1.2-0.5,1.8-0.8c-0.2-0.1-0.4-0.1-0.6-0.2c0.4-0.2,0.7-0.4,0.9-0.4
			c1.4,0,3,1.7,2.9,3.1c-0.3,0-0.6,0-0.8,0c0,0.1,0,0.2-0.1,0.2c0.3,0.1,0.6,0.1,0.9,0.2c-0.3,0.8,0.3,2.2-1.4,2.2
			c0.2,0.1,0.5,0.1,0.8,0.2c-0.7,1.2-1.7,2-2.8,2.5c0.7,0.6,1.6,1.1,2.1,1.8c0.5,0.7,0.9,1.6,0.4,2.7c-0.4-0.1-0.9-0.2-1.4-0.4
			c0,0,0,0.1-0.1,0.1c0.4,0.2,0.9,0.5,1.4,0.7c-0.2,1-0.7,1.8-1.4,2.6c-0.1,0.1-0.2,0.1-0.4,0.1c-1.5,0.1-2.7,0.7-3.9,1.6
			c-0.3,0.3-0.8,0.5-1.2,0.5c-0.7,0-1.4-0.1-2.1-0.1c-0.2,0-0.4,0.2-0.6,0.2c-2.6,0-5.2,0-7.9,0C-350,339.1-350,339.1-350.2,339.1z
			 M-344.3,334.8c1.2,0.1,2.2,0.3,3.5,0.4c-0.3-0.1-0.4-0.2-0.6-0.3c0.8-0.1,1.6-0.1,2.3-0.2c1-0.2,1.7-1.1,1.6-2
			c0-0.2,0.1-0.4,0.1-0.6c-1.9-1.2-4.2-0.5-6.3-0.7C-343.9,332.7-344.1,333.7-344.3,334.8z M-343,327.9c0.7,0,1.4-0.1,2,0
			c0.6,0.1,1.3,0.3,1.9,0.4c-0.1-0.1-0.3-0.3-0.4-0.3c0.6-0.2,1.2-0.4,1.8-0.7c0.6-0.3,0.9-1.2,0.7-1.7c-0.2-0.7-0.7-0.9-1.3-1
			c-1.3-0.1-2.6-0.1-3.8-0.1c-0.1,0-0.3,0.2-0.3,0.3C-342.6,325.8-342.8,326.8-343,327.9z M-334.2,335.9c-0.8-0.7-1.6-0.8-2.5-0.9
			c0,0.1,0,0.1-0.1,0.2c0.3,0.1,0.7,0.2,1,0.3C-335.5,336-335.2,336.1-334.2,335.9z M-343.7,323.1c0.1,0.3,1.5,0.6,2.2,0.5
			c-0.1-0.1-0.2-0.3-0.3-0.4C-342.4,323.2-343,323.2-343.7,323.1z M-333.2,331.1c-0.6,0.1-1.1,0.1-1.7,0.2
			C-334,331.8-333.3,331.7-333.2,331.1z M-342.8,325.3c-0.6-0.2-1-0.3-1.5-0.5C-343.9,325.5-343.5,325.6-342.8,325.3z M-342.7,321.7
			c0,0.1,0,0.2,0,0.2c0.6,0.1,1.2,0.2,1.8,0.4c0-0.1,0-0.1,0-0.2C-341.5,321.9-342.1,321.8-342.7,321.7z M-341.2,322.5
			c0,0.1,0,0.1,0,0.2c0.3,0.1,0.6,0.8,1.1,0C-340.5,322.7-340.8,322.6-341.2,322.5z"/>
		<path class="st0" d="M-257.8,352.8c0.6,0,1.2,0,1.7,0c0,0,0-0.1,0-0.1c-0.4-0.1-0.8-0.2-1.2-0.3c0.9-1,1.8-1.9,2.7-2.8
			c0.8,0.5,1.4,1,2.2,1.4c1.3,0.7,2.7,0.9,4.1,0.8c0.4,0,0.8-0.2,1.1-0.3c0.5-0.2,0.8-0.7,0.7-1.2c-0.1-0.3-0.4-0.8-0.8-0.9
			c-1.2-0.4-2.4-0.7-3.5-1.1c-0.9-0.3-1.8-0.6-2.6-1.1c-1.5-0.9-2.2-2.3-1.9-4c0.4-2.6,1.7-4.4,4.2-5.4c0.4-0.2,0.9-0.2,1.3-0.4
			c2.4-0.9,5.9-0.7,8.3,0.5c0.4,0.2,0.8,0.5,1.2,0.8c0.2,0.2,0.4,0.4,0.7,0.6c-1,1.1-1.9,2.1-2.8,3.1c-1.8-0.5-3.4-1-5.1-1.3
			c-0.7-0.1-1.4,0.3-2.3,0.5c-0.4,0-1-0.1-1.6-0.1c0,0,0,0.1,0,0.1c0.5,0.1,1.1,0.2,1.6,0.3c0,1.2,0.1,1.4,1.2,1.7
			c1.2,0.4,2.5,0.7,3.7,1c0.6,0.2,1.1,0.4,1.8,0.7c-0.1,0.2-0.2,0.4-0.4,0.6c-0.7-0.2-1.4-0.3-2.2-0.5c0,0.1-0.2,0.3-0.3,0.5
			c0.6,0.2,1.2,0.4,1.8,0.6c0-0.1,0.1-0.1,0.1-0.2c-0.4-0.1-0.9-0.3-1.3-0.4c0-0.1,0-0.1,0.1-0.2c1.3,0.3,2.6,0.7,3.8,1
			c0,0,0,0.1,0,0.1c-0.7-0.1-1.3-0.3-2-0.4c0,0.1,0,0.1,0,0.2c0.4,0.1,0.8,0.3,1.2,0.4c1.3,0.2,1.7,0.8,1.4,2.2
			c-0.4,0.1-0.9-0.5-1.2,0.3c0.4,0.1,0.7,0.3,1.2,0.4c-0.2,1.3-0.8,2.5-1.7,3.5c-1,1.1-2.3,1.9-3.8,2.3c-1.9,0.5-3.8,0.6-5.7,0.2
			c-0.2,0-0.3-0.2-0.5-0.3c-0.1-0.1-0.3-0.1-0.4-0.1c-2,0-3.3-1.2-4.7-2.4C-257.8,353-257.8,352.9-257.8,352.8z M-252,352.2
			c0.9,0.3,1.9,0.6,2.9,0.3C-250.1,352.4-251.1,352.3-252,352.2z M-251.3,342.8c0-0.1,0.1-0.2,0.1-0.3c-0.7-0.2-1.4-0.4-2-0.6
			c0,0.1-0.1,0.2-0.1,0.2C-252.7,342.4-252,342.6-251.3,342.8z M-249.8,344c0.9,0.7,1.4,0.8,1.9,0.4
			C-248.5,344.3-249.1,344.1-249.8,344z M-247.5,353.6c0-0.1,0-0.1,0-0.2c-0.4-0.2-0.8-0.3-1.1-0.5c-0.1,0.1-0.2,0.2-0.3,0.4
			C-248.4,353.4-247.9,353.5-247.5,353.6z"/>
		<path class="st0" d="M-317.6,342.2c0.2,0.1,0.3,0.3,0.5,0.3c1.8,0.4,3.6,0.8,5.3,1.4c-0.1,0-0.2,0.1-0.2,0.1
			c1.3,0.3,2.6,0.5,4.1,0.8c-0.2,0.2-0.3,0.2-0.4,0.3c1.3,0.2,1.9,0.4,2.6,1.2c-0.7-0.1-1.3-0.2-1.9-0.3c0,0.1,0,0.2-0.1,0.3
			c0.6,0.2,1.2,0.4,1.9,0.5c0.8,0.2,1.3,1.2,1.1,2c0,0.1,0,0.3,0,0.4c-0.1,0.2-0.3,0.3-0.5,0.5c0.1,0,0.3,0.1,0.6,0.3
			c-0.2,0.7-0.5,1.4-0.7,2.2c-0.4-0.1-0.8-0.2-1.1-0.3c0,0,0,0.1,0,0.1c0.3,0.1,0.6,0.2,1,0.4c-0.6,0.7-1.2,1.3-1.8,1.9
			c-0.1,0.1-0.4,0-0.5,0c-0.5-0.2-1-0.3-1.6-0.5c0.2,1.1,1,0.6,1.7,0.8c-1.9,1.1-3.6,2-5.7,0.8c0,0.1,0,0.2,0,0.2
			c0.3,0.1,0.7,0.2,1,0.4c0,0.1,0,0.1,0,0.2c-0.9-0.1-1.9,0-2.8-0.2c-0.9-0.2-1.7-0.5-2.6-0.9c0.6,0,1.1,0,1.7,0
			c-0.9-0.2-1.7-1-2.8-0.4c0.2,0.1,0.3,0.1,0.5,0.2c0,0.1-0.1,0.1-0.1,0.2c-1.2-0.3-2-1.3-2.9-1.9c0.9-1.5,1.7-2.9,2.6-4.4
			c2.2,2.6,5.2,3.5,8.6,2.9c0,0-0.1-0.1-0.2-0.1c-0.1,0-0.2,0-0.3-0.1c1-1.1,0.8-1.8-0.5-2.2c-1.2-0.4-2.5-0.7-3.7-1.1
			c-1.3-0.4-2.5-0.9-3.4-2.1c0.2,0,0.3-0.1,0.5-0.1c-0.8-0.2-1.2-0.9-1.1-2.1c0-0.3,0.1-0.6,0.1-0.9
			C-318.6,342.2-318.2,342.1-317.6,342.2L-317.6,342.2z M-305.2,349.3c-0.8-0.5-7.1-2-7.8-1.7c0.5,0.2,1,0.2,1.5,0.4
			c1.3,0.3,2.6,0.6,4,0.9c0.4,0.1,0.9,0.1,1.3,0.4C-305.9,349.6-305.6,349.5-305.2,349.3z M-313,352.8c0-0.1,0-0.1,0-0.2
			c-1-0.2-2-0.5-3-0.7c0,0.1,0,0.1,0,0.2C-315,352.3-314,352.6-313,352.8z M-309.5,345.2c0-0.1,0-0.2,0-0.2c-0.7-0.1-1.4-0.2-2-0.3
			c0,0.1,0,0.2,0,0.2C-310.8,345-310.1,345.1-309.5,345.2z M-311.3,355.4c0,0,0.1-0.1,0.1-0.1c-0.5-0.3-0.9-0.5-1.4-0.8
			C-312.6,354.9-312,355.3-311.3,355.4z"/>
		<path class="st0" d="M-290.8,337.3c3.1-0.3,5.8,1.1,8.7,1.5c-1.9-0.5-3.7-1-5.6-1.6c0,0,0-0.1,0-0.1c1.4,0.1,2.7,0.2,4.1,0.3
			c0.1,0,0.2,0.1,0.3,0.1c0.7-0.1,1-0.2,1.3-0.1c1,0.3,2,0.6,2.9,1c0.9,0.4,1.5,1,2.2,1.8c-1.3-0.3-2.4-0.6-3.5-0.9
			c-0.2,0-0.3-0.3-0.4-0.3c-0.4,0-0.8,0-1.1,0c0,0.1,0,0.1,0,0.2c1.2,0.3,2.3,0.7,3.5,1c0.6,0.2,1.2,0.2,1.7,0.4
			c0.1,0,0.2,0.2,0.3,0.3c0.8,1.5,1,3.1,0.8,4.9c-0.7-0.1-1.3-0.3-1.9-0.4c0,0,0,0.1,0,0.1c0.6,0.2,1.2,0.5,1.9,0.8
			c0,0.1-0.1,0.3-0.1,0.5c-1.7-0.4-3.4-0.8-5.1-1.2c0-0.3-0.1-0.5-0.1-0.9c0.7,0.1,1.4,0.3,2.1,0.4c0,0,0-0.1,0-0.1
			c-0.5-0.1-0.9-0.3-1.4-0.4c-0.3-0.1-0.7,0-0.9-0.5c-0.1-0.3-0.1-0.6-0.3-0.8c-0.8-0.8-1.8-1.4-3-1.5c-1.1,0-2.3,0-3.2,0
			c0.4,0.7-0.1,1.3,0,2.2c-1.8-0.5-3.4-0.9-5-1.3c0.3-1.9,0.7-3.6,1-5.3c0.7,0.1,1.4,0.2,2,0.3c0,0,0-0.1,0-0.1
			C-290,337.5-290.4,337.4-290.8,337.3z M-287.9,342.2c-0.5-0.2-1-0.3-1.4-0.5c0,0,0-0.1,0-0.1c0.3,0.1,0.6,0.1,0.9,0.2
			c0,0,0-0.1,0-0.1c-0.7-0.2-1.5-0.4-2.2-0.6C-289.7,341.5-289,342.3-287.9,342.2z M-282.2,342.2c0-0.1,0.1-0.2,0.1-0.3
			c-0.8-0.3-1.7-0.5-2.5-0.8c0,0.1,0,0.1-0.1,0.2C-283.8,341.6-283,341.9-282.2,342.2z"/>
		<path class="st0" d="M-273.7,346.3c0.3-1.6,0.6-3.1,0.9-4.7c1.7,0.4,3.2,0.8,4.9,1.2c-0.1,0.5-0.2,1-0.2,1.5
			c2.9,0.2,5.9-0.2,8.9,0.3c-0.2,0.9-0.3,1.6-0.4,2.3c-0.9-0.2-1.8-0.4-2.7-0.7c0,0.1,0,0.2-0.1,0.3c0.3,0,0.5,0.1,0.8,0.1
			c0.5,0.1,1.1,0.2,1.5,0.3c0.2,0.1,0.3,0.4,0.3,0.7c0,0.2-0.1,0.5-0.2,0.8c-0.2,0-0.5,0-0.7,0c-2.5,0-5-0.1-7.5,0
			c-2,0.1-3.7-0.7-5.6-1.1c0-0.3,0.1-0.6,0.1-0.9c0.8,0.2,1.6,0.4,2.5,0.6c0-0.7-0.1-0.6-0.7-0.5
			C-272.5,346.6-273.1,346.4-273.7,346.3z"/>
		<path class="st0" d="M-257,337.3c-0.1,0.4-0.2,0.9-0.2,1.3c-0.4-0.1-0.8-0.2-1.1-0.3c0,0,0,0.1,0,0.1c0.4,0.2,0.7,0.3,1.1,0.5
			c-0.3,0.4,0.1,1.1-0.7,1.3c0.6,0.4,0.1,0.9,0.1,1.3c-2,0.1-4,0-6-0.5c-1.3-0.4-2.7-0.6-4-0.9c0,0.2,0,0.4,0,0.4c0.4,0,0.8,0,1.1,0
			c0.4,0.1,0.9,0.2,1.3,0.3c0.2,0.1,0.6,0,0.6,0.4c0,0.1,0.5,0,0.7,0.1c0.2,0,0.4,0.1,0.5,0.1c0,0.1,0,0.1,0,0.2c-1.4,0-2.7,0-4.1,0
			c-0.1,0.3-0.2,0.6-0.2,0.9c-1.6-0.4-3.2-0.7-4.9-1.1c0.1-0.3,0.1-0.6,0.2-1c2,0.3,3.9,0.7,5.8,1c0,0,0-0.1,0-0.1
			c-0.9-0.2-1.8-0.3-2.6-0.6c-0.8-0.3-1.7,0-2.4-0.4c-0.2-0.1-0.4-0.3-0.7-0.4c0-0.1,0.1-0.1,0.1-0.2c0.5,0.1,1,0.3,1.4,0.4
			c0-0.1,0-0.1,0.1-0.2c-0.5-0.2-1-0.4-1.5-0.6c0.1-0.6,0.2-1.3,0.4-1.9C-267,337.3-262.1,337.3-257,337.3z M-258.7,340.1
			c0-0.1,0-0.1,0-0.2c-0.8-0.2-1.5-0.4-2.3-0.5c0,0.1,0,0.1,0,0.2C-260.3,339.8-259.5,339.9-258.7,340.1z"/>
		<path class="st0" d="M-301.9,346c0.5-2.9,1.1-5.7,1.6-8.6c0.4,0.1,0.9,0.1,1.3,0.2c0,0,0-0.1,0-0.1c-0.1-0.1-0.2-0.1-0.4-0.2
			c1.4,0,2.8,0,4.2,0c-0.1,0.5-0.2,1-0.3,1.5c-0.2,0-0.5-0.1-0.7-0.1c0,0,0,0.1,0,0.1c0.2,0.1,0.4,0.2,0.7,0.3
			c-0.3,1.6-0.6,3.2-0.9,4.9c-0.5-0.2-1.1,0-1.3-0.8c-0.1,0.2-0.1,0.3-0.2,0.4c-0.8-0.2-1.7-0.3-2.5-0.5c0,0.1,0,0.1,0,0.2
			c1.3,0.3,2.6,0.6,4.1,0.9c-0.4,0.5,0.1,1.3-0.8,1.4c0.4,0.4,0.5,1.1,0.1,1.5c-0.1,0.1-0.3,0.2-0.3,0.2
			C-298.8,346.9-300.3,346.4-301.9,346z"/>
		<path class="st0" d="M-273.8,350.5c1.3,1,2.9,1.2,4.5,1.4c0.7,0.1,1.4,0.3,2,0.5c0.5,0.1,1,0.3,1.5,0.5c0.1,0,0.1,0.1,0.2,0
			c2-0.6,3.7,0.5,5.6,0.7c-0.1,0.6-0.2,1.2-0.3,1.8c0,0.1-0.3,0.3-0.4,0.3c-1.1-0.1-2.2,0.2-3.2-0.3c-0.1,0-0.3,0.1-0.5,0.2
			c-0.2,0-0.4,0.1-0.5,0.1c-1.2,0-2.5,0-3.7,0c-1.4,0-2.9,0-4.3,0c-0.3,0-0.7-0.2-1-0.2c-0.3,0-0.7,0-1,0.1
			c-0.1,0.1-0.3,0.1-0.5,0.3c0.3-1.4,0.5-2.7,0.7-4c0.8,0.2,1.5,0.4,2.3,0.6c-0.1-0.2-0.2-0.3-0.3-0.5c2.9,0.7,5.6,1.3,8.4,2
			c0-0.1,0-0.2,0.1-0.3c-3.4-0.8-6.8-1.6-10.3-2.5c0.1-0.3,0.1-0.6,0.2-0.9C-274.2,350.4-274,350.5-273.8,350.5L-273.8,350.5z"/>
		<path class="st0" d="M-294.4,351.3c0.2-0.6,0.5-1.2,0.7-1.7c-0.5-0.2-0.1-0.6,0-1.1c1.7,0.4,3.3,0.8,4.9,1.1
			c-0.1,0.5-0.2,1-0.2,1.5c2.2,0.1,4.3,0.1,6.1-1.2c0.3-0.2,0.9-0.1,1.3,0c1.2,0.2,2.4,0.5,3.6,0.8c0.1,0,0.2,0.1,0.6,0.2
			c-0.8,0.8-1.5,1.5-2.3,2.2c-0.4,0.4-0.9,0.6-1.3,0.9c-0.2,0.1-0.5,0.2-0.7,0.2c-1-0.1-2-0.3-3-0.5c-2.8-0.7-5.5-1.3-8.3-2
			C-293.5,351.6-293.9,351.5-294.4,351.3z"/>
		<path class="st0" d="M-317.6,342.2c-0.2-0.2-0.4-0.3-0.7-0.5c0.2-0.4,0.4-0.9,0.7-1.4c0.7,0.3,1.3,0.6,1.9,0.8
			c0,0,0.1-0.1,0.1-0.1c-0.4-0.3-0.8-0.6-1-0.8c0.8-0.2,1.8-0.6,2.8-0.8c0.4-0.1,1,0.2,1.4,0.3c0.3,0.1,0.6,0.2,0.9,0.3
			c0-0.1,0-0.1,0.1-0.2c-0.6-0.2-1.2-0.4-1.8-0.7c0.3-0.4,0.7-0.6,1.2-0.4c0.8,0.2,1.5,0.4,2.3,0.6c0-0.1,0-0.1,0.1-0.2
			c-0.8-0.3-1.6-0.5-2.5-0.8c0.4-0.5,0.7-1,1.1-1.4c0.1-0.1,0.2-0.1,0.3-0.1c2.4-0.1,4.6,0.3,6.7,1.7c-0.2,0.4-0.2,1-0.8,1
			c0,0.3,0,0.5-0.1,0.7c-0.5,0.8-1.1,1.6-1.7,2.4c-2.1-1.2-4.2-2.2-6.4-2.8c0,0.1,0,0.1-0.1,0.2c0.7,0.2,1.3,0.5,2.1,0.8
			c-0.8,0.6-2.2,0.3-2.3,1.7c-0.3,0-0.5,0-0.9,0c0.4,0.2,0.7,0.3,1,0.5c0,0.1,0,0.1-0.1,0.2c-0.6-0.2-1.1-0.3-1.7-0.5
			C-315.8,342.6-316.7,342.4-317.6,342.2C-317.6,342.2-317.6,342.2-317.6,342.2z"/>
		<path class="st0" d="M-294.4,351.6c2.2,0.5,4.2,1,6.3,1.5c0.5,0.1,1,0.2,1.5,0.4c0.4,0.1,0.6,0.5,1,0.5c0.8,0.2,1.6,0.3,2.5,0.5
			c0.2,0,0.3,0.1,0.6,0.2c-0.9,0.5-1.7,0.7-2.6,0.4c0.1,0.2,0.1,0.3,0.2,0.5c-0.9,0.1-1.8,0.2-2.7,0.2c-1.2,0-2.4-0.3-3.5-0.1
			c-1.2,0.2-2.4,0-3.5-0.3c-0.1,0-0.2-0.1-0.3-0.1C-294.8,354.1-294.6,352.9-294.4,351.6z M-289.5,353.9c0,0.1,0,0.1-0.1,0.2
			c0.6,0.2,1.2,0.3,1.8,0.5c0-0.1,0-0.1,0.1-0.2C-288.3,354.3-288.9,354.1-289.5,353.9z"/>
		<path class="st0" d="M-303.3,353.3c0.2-1.2,0.5-2.4,0.7-3.6c1.7,0.4,3.3,0.8,4.9,1.1c0.1,1.1-0.5,3.4-0.9,3.6
			c0.6,0.3,0.2,0.7,0.1,1.1c0,0.1-0.4,0.3-0.6,0.3c-1.3,0-2.6,0-4,0c-0.2,0-0.4,0-0.6,0c0.1-0.7,0.2-1.4,0.4-2.1
			c1.2,0.3,2.4,0.7,3.6,1c0-0.1,0-0.1,0.1-0.2C-300.7,353.7-302.1,353.8-303.3,353.3z"/>
		<path class="st0" d="M-292.6,343c1.2,0.3,2.5,0.6,3.8,1c0.3,0.1,0.5,0.5,0.8,0.8c0.1,0,0.2,0,0.2,0c-0.2,0.4-0.4,0.9-0.5,1.3
			c-0.1,0.5,0,1.1-0.1,1.6c-0.1,0.5-0.2,1.1-0.3,1.7c-1.7-0.2-3.3-0.7-4.8-1.4c0.1-0.7,0.2-1.3,0.3-2.1c1.4,0.4,2.8,0.7,4.2,1
			c0-0.1,0-0.1,0-0.2c-1.2-0.3-2.4-0.6-3.6-0.9c-0.2,0-0.4-0.2-0.5-0.3c0-0.1,0.1-0.1,0.1-0.2c1.5,0.4,2.9,0.8,4.4,1.2
			c0-0.1,0-0.1,0-0.2c-1.4-0.4-2.9-0.8-4.4-1.3C-292.9,344.3-292.8,343.6-292.6,343z"/>
		<path class="st0" d="M-275.8,347.2c-0.5,0.8-0.3,1.9-1.2,2.3c0,0.3,0,0.5-0.1,0.8c-0.1,0.4-0.4,0.3-0.7,0.2
			c-1.3-0.3-2.6-0.5-3.9-0.8c-0.2,0-0.4-0.1-0.6-0.1c0.5-0.9,0.9-1.7,1.4-2.7c0.5,0.1,1.1,0.3,1.8,0.4c0,0,0-0.1,0-0.1
			c-0.4-0.1-0.8-0.2-1.2-0.4c-0.2-0.1-0.4-0.2-0.5-0.4c-0.1-0.1-0.1-0.2-0.1-0.3c0.1-0.1,0.2-0.1,0.3-0.1
			C-279,346.3-277.5,346.7-275.8,347.2z"/>
		<path class="st0" d="M-296.9,347.7c-0.3,0.3-0.4,0.5-0.6,0.8c0.6,0.6-0.2,1.3-0.1,2.1c-1.7-0.4-3.3-0.8-5-1.2
			c0.1-0.6,0.2-1.2,0.4-2c1.4,0.4,2.7,0.7,4,1c0-0.1,0-0.2,0.1-0.2c-1.3-0.3-2.7-0.6-4.1-1c0-0.3,0.1-0.5,0.1-0.8
			C-300.3,346.9-298.7,347.3-296.9,347.7z"/>
		<path class="st0" d="M-273.8,350.5c-0.2-0.1-0.3-0.3-0.6-0.5c0.1-0.7,0.3-1.5,0.4-2.3c1.6,0.4,3.2,0.8,4.9,1.2
			c-0.2,0.8-0.3,1.6-0.4,2.3C-271,351-272.4,350.7-273.8,350.5L-273.8,350.5z"/>
		<path class="st0" d="M-268.2,351.4c2.9,0,5.7,0,8.7,0c-0.1,0.7-0.2,1.3-0.4,2.1c-1.1-0.3-2.1-0.7-3.2-1c-0.2-0.7-0.9-0.7-1.5-1
			c-0.1-0.1-0.3,0-0.4,0.1c0.4,0.2,0.8,0.4,1.2,0.6c0,0.1,0,0.3-0.1,0.5c-1.5-0.4-2.9-0.7-4.4-1.1
			C-268.3,351.6-268.3,351.5-268.2,351.4z"/>
		<path class="st0" d="M-242.9,345.6c0.3,0.2,0.6,0.4,0.8,0.6c0,0,0,0.1-0.1,0.1c-0.3-0.1-0.6-0.1-1-0.2
			C-243,346-243,345.9-242.9,345.6z"/>
	</g>
	<g>
		<path class="st0" d="M-324.4,334.5c0.6,0.4,1.5,0.2,1.3,1.2c-0.2,0-0.4,0-0.5,0c0.5,0.7,1.1,1.4,1.7,2.1c0.4,0.5,0.8,0.9,1.2,1.3
			c-0.6-0.1-1.1-0.1-1.8-0.2c0.8,0.4,1.4,0.7,2.1,1c0.5,0.2,0.6,0.5,0.6,1.1c-0.2,0-0.4,0-0.8,0c0.4,0.3,0.7,0.4,1,0.6
			c0,0.1-0.1,0.1-0.1,0.2c-0.4-0.1-0.8-0.3-1.2-0.4c-1.9-0.5-3.8-0.9-5.6-1.4c-0.4-0.1-0.7-0.2-0.7-0.6c0-0.1,0-0.1-0.1-0.1
			c0,0-0.2,0-0.2-0.1c-0.1-0.1-0.1-0.3-0.2-0.5c-0.9-0.5-2-1.2-3.2-1.8c0.4-1.2,0.7-2.5,1.1-3.7c1,0.2,2.1,0.2,3,0.6
			c0.6,0.3,1.2,0.4,1.8,0.6c0.2,0.1,0.5,0.1,0.7,0.1c0-0.1,0-0.1,0-0.2c-0.7-0.2-1.3-0.3-2-0.5c0,0,0.1-0.1,0.1-0.1
			c-0.1-0.1-0.2-0.4-0.3-0.4c-0.5-0.1-1-0.1-1.5-0.1c-0.6-0.1-1.2-0.2-1.7-0.3c0.2-0.6,0.3-1.2,0.5-1.8c1.4,0,2.6,1.1,4.2,0.6
			c-1.5-0.3-2.7-0.6-4.1-1c0.2-0.5,0.3-0.9,0.4-1.4c0.3,0,0.5,0,0.8,0c0,0,0-0.1,0-0.1c-0.2,0-0.4-0.1-0.7-0.1
			c0-0.5,0.2-0.5,0.5-0.3c-0.1-0.2-0.2-0.5-0.3-0.7c0.2,0,0.4-0.1,0.7-0.1c0.3,0,0.6,0,0.9,0c0-0.1,0-0.1,0-0.2
			c-0.5,0-0.9-0.1-1.4-0.1c0-0.1-0.1-0.1-0.1-0.2c0.4-0.6,0.8-1.1,1.1-1.7c0.5-1.1,1.2-0.3,1.9-0.2c0.6,0.1,1.2,0.3,1.8,0.5
			c0-0.1,0-0.2,0.1-0.3c-0.3-0.1-0.6-0.1-0.9-0.2c0.3-0.3,0.2-0.5-0.5-0.9c-0.4,0.4-0.9,0.4-1.6,0c0.3-0.4,0.6-0.7,0.9-1.1
			c0.3,0.1,0.6,0.2,0.9,0.2c0,0,0-0.1,0-0.1c-0.2-0.1-0.4-0.2-0.8-0.4c0.9-0.6,1.7-1.2,2.5-1.8c0.1-0.1,0.3,0,0.5,0
			c0.5,0.1,0.9,0.3,1.4,0.4c0,0,0-0.1,0.1-0.1c-0.4-0.2-0.8-0.4-1.3-0.6c0.6-0.6,1.4-0.6,2.1-0.3c0.6,0.2,1.1,0.4,1.8,0.6
			c-0.7-0.3-1.4-0.6-2.1-1c0,0,0-0.1,0-0.1c0.8,0.2,1.6,0.5,2.4,0.5c1.2,0,2.1,0.6,3.2,0.7c1.1,0.2,2.3,0.4,3.4,0.7
			c0.4,0.1,0.7,0.3,1,0.4c0.4,0.1,0.8,0.1,1.1,0.1c0.5,0,0.9,0,1.3,0.4c0.1,0.2,0.5,0.1,0.8,0.2c0.4,0.2,0.8,0.3,1.1,0.6
			c0.8,1,1.5,2.1,2.3,3.1c-0.1,0-0.1,0.1-0.2,0.1c-0.8-0.2-1.5-0.3-2.3-0.5c0,0.1,0,0.1-0.1,0.2c0.2,0.1,0.4,0.2,0.6,0.2
			c0.6,0.2,1.2,0.3,1.8,0.5c0.2,0.1,0.4,0.3,0.7,0.6c-0.5,0-0.7,0-1,0c0,0.1,0,0.1,0,0.1c1.3,0.1,1.1,1.2,1.3,2
			c0.1,0.2,0.1,0.4,0.1,0.6c-0.1,0-0.3,0.1-0.4,0.1c0,0,0,0.1,0,0.1c1,0.7,0.2,1.7,0.6,2.6c-2.1-0.5-3.9-0.9-5.8-1.3
			c0,0.1,0,0.2-0.1,0.2c0.5,0.1,1.1,0.3,1.6,0.4c1.2,0.3,2.4,0.5,3.6,0.7c0.6,0.1,0.7,0.4,0.4,1.3c-2.1-0.4-4.2-0.7-6.3-1.1
			c0-0.8,0-1.6,0-2.4c0.7,0.2,1.5,0.4,2.2,0.6c-0.1,1.1,0.7,0.1,1.1,0.3c-0.2-0.1-0.3-0.2-0.5-0.3c0,0,0-0.1,0-0.1
			c0.3,0,0.6,0.1,0.9,0.1c0,0,0-0.1,0-0.1c-1.2-0.2-2.4-0.5-3.7-0.7c0-0.1,0-0.1,0-0.2c0.4,0,0.8,0,1.2,0.1c0,0,0-0.1,0-0.1
			c-0.4-0.1-0.7-0.2-1.1-0.2c-0.4,0-0.6-0.2-0.6-0.5c-0.2-0.9-0.7-1.7-1.3-2.2c-1.9-1.7-4.1-2.6-6.7-1.9c-0.2,0.1-0.5,0-0.8,0
			c-0.9-0.2-1.7-0.3-2.6-0.5c-0.5-0.1-0.9-0.3-1.3-0.4c-0.2-0.1-0.4-0.1-0.6-0.1c0,0.1,0,0.1,0,0.2c1.4,0.4,2.9,0.7,4.5,1.1
			c-0.5,0.3-0.9,0.5-1.3,0.8c-0.1,0-0.2,0-0.4,0c-2.1-0.5-4.2-1.1-6.2-1.6c0,0.1-0.1,0.2-0.1,0.3c2.1,0.5,4.1,1.1,6.2,1.6
			c-0.4,1-1.1,0.4-1.7,0.5c-0.2,0-0.3,0-0.5,0c0.4,0.2,0.8,0.3,1.2,0.5c0,0.1,0.1,0.1,0.1,0.2c-0.4,0.2-0.7,0.4-1.1,0.5
			c0,0,0.2,0.1,0.3,0.2c-1,1.4-1.5,3-1.3,4.8C-323.6,334.5-323.9,334.5-324.4,334.5z"/>
		<path class="st0" d="M-320.2,347.5c-0.7,2.2-1.9,4.1-3.7,5.7c-0.5,0.5-1.2,0.9-1.7,1.3c-0.9,0.7-1.8,0.8-2.8,0.5
			c-0.8-0.3-1.7-0.6-2.5-0.8c-0.5-0.1-1-0.1-1.5-0.2c0,0,0.1-0.1,0.2-0.1c0,0,0-0.1,0-0.1c-0.3,0-0.6,0.1-1,0.1
			c-0.4,0-0.8,0-1.2,0.1c0.3,0,0.6,0.2,0.9,0.1c0.6-0.1,1,0.2,1.4,0.4c0.2,0.1,0.4,0.2,0.6,0.3c1.1,0.3,2.3,0.7,3.4,1
			c-3.3,1.5-8.7,1.5-13-1.8c-4.5-3.5-5.7-9.1-4.9-12.6c2.1,0,4.1,0,6.1,0c-0.1,0.9-0.4,1.8-0.4,2.7c0,0.9,0.2,1.8,0.3,2.7
			c-0.4-0.2-0.8-0.3-1.2-0.5c0,0.1-0.1,0.1-0.1,0.2c0.3,0.2,0.6,0.3,0.8,0.5c0.4,0.3,0.9,0.6,1.2,1c1.9,2.7,5.3,3.8,8.4,2.5
			c0.3-0.1,0.6-0.1,0.9-0.2c0-0.1,0-0.3,0.2-0.4c1.9-1.4,3.1-3.2,3.7-5.7c0.5,0.2,0.9,0.5,1.4,0.7c0.3,0.1,0.7,0.2,1.1,0.2
			c0.8,0.2,1.8,0.2,2.4,0.5c0.4,0.2,0.8,0.4,1.3,0.4c-0.1,0.4-0.2,0.8-0.3,1.2c-0.6,0.1-1.1-0.6-1.7-0.1
			C-321.3,347.3-320.8,347.4-320.2,347.5z"/>
		<path class="st0" d="M-332.9,346.7c-1.5,0-2.7-1.2-2.7-2.7c0-1.5,1.2-2.7,2.7-2.7c1.5,0,2.7,1.2,2.7,2.7
			C-330.1,345.5-331.3,346.7-332.9,346.7z"/>
		<path class="st0" d="M-313.5,333.3c0,1.5-1.2,2.7-2.7,2.7c-1.5,0-2.7-1.2-2.7-2.7c0-1.5,1.2-2.7,2.7-2.7
			C-314.7,330.6-313.5,331.8-313.5,333.3z"/>
		<path class="st0" d="M-326.4,340.9c0.6,0.1,1.2,0.3,1.7,0.4c0,0,0-0.1,0.1-0.1c-0.3-0.2-0.7-0.3-1-0.5c1.1-0.3,2,0.5,3,0.7
			c1,0.1,2,0.5,3,0.8c-0.2,0.1-0.3,0.3-0.5,0.4c0.6,0.1,0.7,0.5,0.6,1c-0.1,0.7-0.1,1.3-0.1,2.1c-0.8-0.2-1.4-0.4-2.1-0.6
			c-0.6-0.2-1.2-0.3-1.8-0.5c-0.7-0.2-1.4-0.4-2.1-0.6c-0.1,0-0.3-0.2-0.3-0.4C-326.2,342.8-326.3,341.9-326.4,340.9z"/>
		<path class="st0" d="M-319.3,320.1c1.1-0.3,2-0.5,3.1-0.2c0.8,0.2,1.6,0.3,2.4,0.5c1.6,0.4,3.2,0.8,4.8,1.3c0.5,0.2,1,0.6,1.5,0.9
			c0,0.1-0.1,0.1-0.1,0.2C-311.5,321.9-315.4,321-319.3,320.1z"/>
		<path class="st0" d="M-315.8,319.7c1.8,0,3.6,0.3,5.2,1.1C-312.3,320.5-314.1,320.1-315.8,319.7z"/>
	</g>
	<g>
		<path class="st0" d="M-324,333.4c0.6,0.4,1.5,0.2,1.3,1.2c-0.2,0-0.4,0-0.5,0c0.5,0.7,1.1,1.4,1.7,2.1c0.4,0.5,0.8,0.9,1.2,1.3
			c-0.6-0.1-1.1-0.1-1.8-0.2c0.8,0.4,1.4,0.7,2.1,1c0.5,0.2,0.6,0.5,0.6,1.1c-0.2,0-0.4,0-0.8,0c0.4,0.3,0.7,0.4,1,0.6
			c0,0.1-0.1,0.1-0.1,0.2c-0.4-0.1-0.8-0.3-1.2-0.4c-1.9-0.5-3.8-0.9-5.6-1.4c-0.4-0.1-0.7-0.2-0.7-0.6c0-0.1,0-0.1-0.1-0.1
			c0,0-0.2,0-0.2-0.1c-0.1-0.1-0.1-0.3-0.2-0.5c-0.9-0.5-2-1.2-3.2-1.8c0.4-1.2,0.7-2.5,1.1-3.7c1,0.2,2.1,0.2,3,0.6
			c0.6,0.3,1.2,0.4,1.8,0.6c0.2,0.1,0.5,0.1,0.7,0.1c0-0.1,0-0.1,0-0.2c-0.7-0.2-1.3-0.3-2-0.5c0,0,0.1-0.1,0.1-0.1
			c-0.1-0.1-0.2-0.4-0.3-0.4c-0.5-0.1-1-0.1-1.5-0.1c-0.6-0.1-1.2-0.2-1.7-0.3c0.2-0.6,0.3-1.2,0.5-1.8c1.4,0,2.6,1.1,4.2,0.6
			c-1.5-0.3-2.7-0.6-4.1-1c0.2-0.5,0.3-0.9,0.4-1.4c0.3,0,0.5,0,0.8,0c0,0,0-0.1,0-0.1c-0.2,0-0.4-0.1-0.7-0.1
			c0-0.5,0.2-0.5,0.5-0.3c-0.1-0.2-0.2-0.5-0.3-0.7c0.2,0,0.4-0.1,0.7-0.1c0.3,0,0.6,0,0.9,0c0-0.1,0-0.1,0-0.2
			c-0.5,0-0.9-0.1-1.4-0.1c0-0.1-0.1-0.1-0.1-0.2c0.4-0.6,0.8-1.1,1.1-1.7c0.5-1.1,1.2-0.3,1.9-0.2c0.6,0.1,1.2,0.3,1.8,0.5
			c0-0.1,0-0.2,0.1-0.3c-0.3-0.1-0.6-0.1-0.9-0.2c0.3-0.3,0.2-0.5-0.5-0.9c-0.4,0.4-0.9,0.4-1.6,0c0.3-0.4,0.6-0.7,0.9-1.1
			c0.3,0.1,0.6,0.2,0.9,0.2c0,0,0-0.1,0-0.1c-0.2-0.1-0.4-0.2-0.8-0.4c0.9-0.6,1.7-1.2,2.5-1.8c0.1-0.1,0.3,0,0.5,0
			c0.5,0.1,0.9,0.3,1.4,0.4c0,0,0-0.1,0.1-0.1c-0.4-0.2-0.8-0.4-1.3-0.6c0.6-0.6,1.4-0.6,2.1-0.3c0.6,0.2,1.1,0.4,1.8,0.6
			c-0.7-0.3-1.4-0.6-2.1-1c0,0,0-0.1,0-0.1c0.8,0.2,1.6,0.5,2.4,0.5c1.2,0,2.1,0.6,3.2,0.7c1.1,0.2,2.3,0.4,3.4,0.7
			c0.4,0.1,0.7,0.3,1,0.4c0.4,0.1,0.8,0.1,1.1,0.1c0.5,0,0.9,0,1.3,0.4c0.1,0.2,0.5,0.1,0.8,0.2c0.4,0.2,0.8,0.3,1.1,0.6
			c0.8,1,1.5,2.1,2.3,3.1c-0.1,0-0.1,0.1-0.2,0.1c-0.8-0.2-1.5-0.3-2.3-0.5c0,0.1,0,0.1-0.1,0.2c0.2,0.1,0.4,0.2,0.6,0.2
			c0.6,0.2,1.2,0.3,1.8,0.5c0.2,0.1,0.4,0.3,0.7,0.6c-0.5,0-0.7,0-1,0c0,0.1,0,0.1,0,0.1c1.3,0.1,1.1,1.2,1.3,2
			c0.1,0.2,0.1,0.4,0.1,0.6c-0.1,0-0.3,0.1-0.4,0.1c0,0,0,0.1,0,0.1c1,0.7,0.2,1.7,0.6,2.6c-2.1-0.5-3.9-0.9-5.8-1.3
			c0,0.1,0,0.2-0.1,0.2c0.5,0.1,1.1,0.3,1.6,0.4c1.2,0.3,2.4,0.5,3.6,0.7c0.6,0.1,0.7,0.4,0.4,1.3c-2.1-0.4-4.2-0.7-6.3-1.1
			c0-0.8,0-1.6,0-2.4c0.7,0.2,1.5,0.4,2.2,0.6c-0.1,1.1,0.7,0.1,1.1,0.3c-0.2-0.1-0.3-0.2-0.5-0.3c0,0,0-0.1,0-0.1
			c0.3,0,0.6,0.1,0.9,0.1c0,0,0-0.1,0-0.1c-1.2-0.2-2.4-0.5-3.7-0.7c0-0.1,0-0.1,0-0.2c0.4,0,0.8,0,1.2,0.1c0,0,0-0.1,0-0.1
			c-0.4-0.1-0.7-0.2-1.1-0.2c-0.4,0-0.6-0.2-0.6-0.5c-0.2-0.9-0.7-1.7-1.3-2.2c-1.9-1.7-4.1-2.6-6.7-1.9c-0.2,0.1-0.5,0-0.8,0
			c-0.9-0.2-1.7-0.3-2.6-0.5c-0.5-0.1-0.9-0.3-1.3-0.4c-0.2-0.1-0.4-0.1-0.6-0.1c0,0.1,0,0.1,0,0.2c1.4,0.4,2.9,0.7,4.5,1.1
			c-0.5,0.3-0.9,0.5-1.3,0.8c-0.1,0-0.2,0-0.4,0c-2.1-0.5-4.2-1.1-6.2-1.6c0,0.1-0.1,0.2-0.1,0.3c2.1,0.5,4.1,1.1,6.2,1.6
			c-0.4,1-1.1,0.4-1.7,0.5c-0.2,0-0.3,0-0.5,0c0.4,0.2,0.8,0.3,1.2,0.5c0,0.1,0.1,0.1,0.1,0.2c-0.4,0.2-0.7,0.4-1.1,0.5
			c0,0,0.2,0.1,0.3,0.2c-1,1.4-1.5,3-1.3,4.8C-323.2,333.4-323.5,333.4-324,333.4z"/>
		<path class="st0" d="M-319.8,346.4c-0.7,2.2-1.9,4.1-3.7,5.7c-0.5,0.5-1.2,0.9-1.7,1.3c-0.9,0.7-1.8,0.8-2.8,0.5
			c-0.8-0.3-1.7-0.6-2.5-0.8c-0.5-0.1-1-0.1-1.5-0.2c0,0,0.1-0.1,0.2-0.1c0,0,0-0.1,0-0.1c-0.3,0-0.6,0.1-1,0.1
			c-0.4,0-0.8,0-1.2,0.1c0.3,0,0.6,0.2,0.9,0.1c0.6-0.1,1,0.2,1.4,0.4c0.2,0.1,0.4,0.2,0.6,0.3c1.1,0.3,2.3,0.7,3.4,1
			c-3.3,1.5-8.7,1.5-13-1.8c-4.5-3.5-5.7-9.1-4.9-12.6c2.1,0,4.1,0,6.1,0c-0.1,0.9-0.4,1.8-0.4,2.7c0,0.9,0.2,1.8,0.3,2.7
			c-0.4-0.2-0.8-0.3-1.2-0.5c0,0.1-0.1,0.1-0.1,0.2c0.3,0.2,0.6,0.3,0.8,0.5c0.4,0.3,0.9,0.6,1.2,1c1.9,2.7,5.3,3.8,8.4,2.5
			c0.3-0.1,0.6-0.1,0.9-0.2c0-0.1,0-0.3,0.2-0.4c1.9-1.4,3.1-3.2,3.7-5.7c0.5,0.2,0.9,0.5,1.4,0.7c0.3,0.1,0.7,0.2,1.1,0.2
			c0.8,0.2,1.8,0.2,2.4,0.5c0.4,0.2,0.8,0.4,1.3,0.4c-0.1,0.4-0.2,0.8-0.3,1.2c-0.6,0.1-1.1-0.6-1.7-0.1
			C-320.9,346.2-320.4,346.3-319.8,346.4z"/>
		<path class="st0" d="M-332.4,345.6c-1.5,0-2.7-1.2-2.7-2.7c0-1.5,1.2-2.7,2.7-2.7c1.5,0,2.7,1.2,2.7,2.7
			C-329.7,344.5-330.9,345.6-332.4,345.6z"/>
		<path class="st0" d="M-313,332.2c0,1.5-1.2,2.7-2.7,2.7c-1.5,0-2.7-1.2-2.7-2.7c0-1.5,1.2-2.7,2.7-2.7
			C-314.3,329.5-313,330.7-313,332.2z"/>
		<path class="st0" d="M-326,339.8c0.6,0.1,1.2,0.3,1.7,0.4c0,0,0-0.1,0.1-0.1c-0.3-0.2-0.7-0.3-1-0.5c1.1-0.3,2,0.5,3,0.7
			c1,0.1,2,0.5,3,0.8c-0.2,0.1-0.3,0.3-0.5,0.4c0.6,0.1,0.7,0.5,0.6,1c-0.1,0.7-0.1,1.3-0.1,2.1c-0.8-0.2-1.4-0.4-2.1-0.6
			c-0.6-0.2-1.2-0.3-1.8-0.5c-0.7-0.2-1.4-0.4-2.1-0.6c-0.1,0-0.3-0.2-0.3-0.4C-325.8,341.7-325.9,340.8-326,339.8z"/>
		<path class="st0" d="M-318.9,319c1.1-0.3,2-0.5,3.1-0.2c0.8,0.2,1.6,0.3,2.4,0.5c1.6,0.4,3.2,0.8,4.8,1.3c0.5,0.2,1,0.6,1.5,0.9
			c0,0.1-0.1,0.1-0.1,0.2C-311.1,320.8-314.9,319.9-318.9,319z"/>
		<path class="st0" d="M-315.4,318.6c1.8,0,3.6,0.3,5.2,1.1C-311.9,319.4-313.7,319-315.4,318.6z"/>
	</g>
	<g>
		<path class="st0" d="M-349.4,338.3c1.2-6.2,2.3-12.4,3.5-18.7c3.4,0,6.8-0.1,10.2,0.1c0,0.4-0.1,0.5-0.5,0.4c-0.3,0-0.6-0.1-0.9,0
			c0.6,0.2,1.3,0.4,2,0.7c-0.2,0.2-0.4,0.4-0.7,0.7c0.6-0.3,1.2-0.5,1.8-0.8c-0.2-0.1-0.4-0.1-0.6-0.2c0.4-0.2,0.7-0.4,0.9-0.4
			c1.4,0,3,1.7,2.9,3.1c-0.3,0-0.6,0-0.8,0c0,0.1,0,0.2-0.1,0.2c0.3,0.1,0.6,0.1,0.9,0.2c-0.3,0.8,0.3,2.2-1.4,2.2
			c0.2,0.1,0.5,0.1,0.8,0.2c-0.7,1.2-1.7,2-2.8,2.5c0.7,0.6,1.6,1.1,2.1,1.8c0.5,0.7,0.9,1.6,0.4,2.7c-0.4-0.1-0.9-0.2-1.4-0.4
			c0,0,0,0.1-0.1,0.1c0.4,0.2,0.9,0.5,1.4,0.7c-0.2,1-0.7,1.8-1.4,2.6c-0.1,0.1-0.2,0.1-0.4,0.1c-1.5,0.1-2.7,0.7-3.9,1.6
			c-0.3,0.3-0.8,0.5-1.2,0.5c-0.7,0-1.4-0.1-2.1-0.1c-0.2,0-0.4,0.2-0.6,0.2c-2.6,0-5.2,0-7.9,0
			C-349.2,338.3-349.3,338.3-349.4,338.3z M-343.6,334c1.2,0.1,2.2,0.3,3.5,0.4c-0.3-0.1-0.4-0.2-0.6-0.3c0.8-0.1,1.6-0.1,2.3-0.2
			c1-0.2,1.7-1.1,1.6-2c0-0.2,0.1-0.4,0.1-0.6c-1.9-1.2-4.2-0.5-6.3-0.7C-343.2,331.9-343.4,333-343.6,334z M-342.3,327.1
			c0.7,0,1.4-0.1,2,0c0.6,0.1,1.3,0.3,1.9,0.4c-0.1-0.1-0.3-0.3-0.4-0.3c0.6-0.2,1.2-0.4,1.8-0.7c0.6-0.3,0.9-1.2,0.7-1.7
			c-0.2-0.7-0.7-0.9-1.3-1c-1.3-0.1-2.6-0.1-3.8-0.1c-0.1,0-0.3,0.2-0.3,0.3C-341.9,325.1-342.1,326-342.3,327.1z M-333.4,335.1
			c-0.8-0.7-1.6-0.8-2.5-0.9c0,0.1,0,0.1-0.1,0.2c0.3,0.1,0.7,0.2,1,0.3C-334.8,335.2-334.4,335.3-333.4,335.1z M-343,322.3
			c0.1,0.3,1.5,0.6,2.2,0.5c-0.1-0.1-0.2-0.3-0.3-0.4C-341.7,322.4-342.3,322.4-343,322.3z M-332.5,330.4c-0.6,0.1-1.1,0.1-1.7,0.2
			C-333.2,331-332.6,330.9-332.5,330.4z M-342.1,324.6c-0.6-0.2-1-0.3-1.5-0.5C-343.2,324.7-342.8,324.9-342.1,324.6z M-342,320.9
			c0,0.1,0,0.2,0,0.2c0.6,0.1,1.2,0.2,1.8,0.4c0-0.1,0-0.1,0-0.2C-340.8,321.2-341.4,321-342,320.9z M-340.4,321.8
			c0,0.1,0,0.1,0,0.2c0.3,0.1,0.6,0.8,1.1,0C-339.8,321.9-340.1,321.8-340.4,321.8z"/>
		<path class="st0" d="M-257,352.1c0.6,0,1.2,0,1.7,0c0,0,0-0.1,0-0.1c-0.4-0.1-0.8-0.2-1.2-0.3c0.9-1,1.8-1.9,2.7-2.8
			c0.8,0.5,1.4,1,2.2,1.4c1.3,0.7,2.7,0.9,4.1,0.8c0.4,0,0.8-0.2,1.1-0.3c0.5-0.2,0.8-0.7,0.7-1.2c-0.1-0.3-0.4-0.8-0.8-0.9
			c-1.2-0.4-2.4-0.7-3.5-1.1c-0.9-0.3-1.8-0.6-2.6-1.1c-1.5-0.9-2.2-2.3-1.9-4c0.4-2.6,1.7-4.4,4.2-5.4c0.4-0.2,0.9-0.2,1.3-0.4
			c2.4-0.9,5.9-0.7,8.3,0.5c0.4,0.2,0.8,0.5,1.2,0.8c0.2,0.2,0.4,0.4,0.7,0.6c-1,1.1-1.9,2.1-2.8,3.1c-1.8-0.5-3.4-1-5.1-1.3
			c-0.7-0.1-1.4,0.3-2.3,0.5c-0.4,0-1-0.1-1.6-0.1c0,0,0,0.1,0,0.1c0.5,0.1,1.1,0.2,1.6,0.3c0,1.2,0.1,1.4,1.2,1.7
			c1.2,0.4,2.5,0.7,3.7,1c0.6,0.2,1.1,0.4,1.8,0.7c-0.1,0.2-0.2,0.4-0.4,0.6c-0.7-0.2-1.4-0.3-2.2-0.5c0,0.1-0.2,0.3-0.3,0.5
			c0.6,0.2,1.2,0.4,1.8,0.6c0-0.1,0.1-0.1,0.1-0.2c-0.4-0.1-0.9-0.3-1.3-0.4c0-0.1,0-0.1,0.1-0.2c1.3,0.3,2.6,0.7,3.8,1
			c0,0,0,0.1,0,0.1c-0.7-0.1-1.3-0.3-2-0.4c0,0.1,0,0.1,0,0.2c0.4,0.1,0.8,0.3,1.2,0.4c1.3,0.2,1.7,0.8,1.4,2.2
			c-0.4,0.1-0.9-0.5-1.2,0.3c0.4,0.1,0.7,0.3,1.2,0.4c-0.2,1.3-0.8,2.5-1.7,3.5c-1,1.1-2.3,1.9-3.8,2.3c-1.9,0.5-3.8,0.6-5.7,0.2
			c-0.2,0-0.3-0.2-0.5-0.3c-0.1-0.1-0.3-0.1-0.4-0.1c-2,0-3.3-1.2-4.7-2.4C-257.1,352.3-257.1,352.2-257,352.1z M-251.3,351.5
			c0.9,0.3,1.9,0.6,2.9,0.3C-249.3,351.6-250.3,351.5-251.3,351.5z M-250.6,342c0-0.1,0.1-0.2,0.1-0.3c-0.7-0.2-1.4-0.4-2-0.6
			c0,0.1-0.1,0.2-0.1,0.2C-251.9,341.6-251.3,341.8-250.6,342z M-249.1,343.2c0.9,0.7,1.4,0.8,1.9,0.4
			C-247.8,343.5-248.4,343.4-249.1,343.2z M-246.7,352.8c0-0.1,0-0.1,0-0.2c-0.4-0.2-0.8-0.3-1.1-0.5c-0.1,0.1-0.2,0.2-0.3,0.4
			C-247.6,352.6-247.2,352.7-246.7,352.8z"/>
		<path class="st0" d="M-316.9,341.4c0.2,0.1,0.3,0.3,0.5,0.3c1.8,0.4,3.6,0.8,5.3,1.4c-0.1,0-0.2,0.1-0.2,0.1
			c1.3,0.3,2.6,0.5,4.1,0.8c-0.2,0.2-0.3,0.2-0.4,0.3c1.3,0.2,1.9,0.4,2.6,1.2c-0.7-0.1-1.3-0.2-1.9-0.3c0,0.1,0,0.2-0.1,0.3
			c0.6,0.2,1.2,0.4,1.9,0.5c0.8,0.2,1.3,1.2,1.1,2c0,0.1,0,0.3,0,0.4c-0.1,0.2-0.3,0.3-0.5,0.5c0.1,0,0.3,0.1,0.6,0.3
			c-0.2,0.7-0.5,1.4-0.7,2.2c-0.4-0.1-0.8-0.2-1.1-0.3c0,0,0,0.1,0,0.1c0.3,0.1,0.6,0.2,1,0.4c-0.6,0.7-1.2,1.3-1.8,1.9
			c-0.1,0.1-0.4,0-0.5,0c-0.5-0.2-1-0.3-1.6-0.5c0.2,1.1,1,0.6,1.7,0.8c-1.9,1.1-3.6,2-5.7,0.8c0,0.1,0,0.2,0,0.2
			c0.3,0.1,0.7,0.2,1,0.4c0,0.1,0,0.1,0,0.2c-0.9-0.1-1.9,0-2.8-0.2c-0.9-0.2-1.7-0.5-2.6-0.9c0.6,0,1.1,0,1.7,0
			c-0.9-0.2-1.7-1-2.8-0.4c0.2,0.1,0.3,0.1,0.5,0.2c0,0.1-0.1,0.1-0.1,0.2c-1.2-0.3-2-1.3-2.9-1.9c0.9-1.5,1.7-2.9,2.6-4.4
			c2.2,2.6,5.2,3.5,8.6,2.9c0,0-0.1-0.1-0.2-0.1c-0.1,0-0.2,0-0.3-0.1c1-1.1,0.8-1.8-0.5-2.2c-1.2-0.4-2.5-0.7-3.7-1.1
			c-1.3-0.4-2.5-0.9-3.4-2.1c0.2,0,0.3-0.1,0.5-0.1c-0.8-0.2-1.2-0.9-1.1-2.1c0-0.3,0.1-0.6,0.1-0.9
			C-317.9,341.5-317.5,341.3-316.9,341.4L-316.9,341.4z M-304.5,348.5c-0.8-0.5-7.1-2-7.8-1.7c0.5,0.2,1,0.2,1.5,0.4
			c1.3,0.3,2.6,0.6,4,0.9c0.4,0.1,0.9,0.1,1.3,0.4C-305.1,348.8-304.8,348.8-304.5,348.5z M-312.3,352c0-0.1,0-0.1,0-0.2
			c-1-0.2-2-0.5-3-0.7c0,0.1,0,0.1,0,0.2C-314.2,351.5-313.3,351.8-312.3,352z M-308.7,344.4c0-0.1,0-0.2,0-0.2
			c-0.7-0.1-1.4-0.2-2-0.3c0,0.1,0,0.2,0,0.2C-310.1,344.2-309.4,344.3-308.7,344.4z M-310.6,354.7c0,0,0.1-0.1,0.1-0.1
			c-0.5-0.3-0.9-0.5-1.4-0.8C-311.8,354.2-311.3,354.5-310.6,354.7z"/>
		<path class="st0" d="M-290,336.5c3.1-0.3,5.8,1.1,8.7,1.5c-1.9-0.5-3.7-1-5.6-1.6c0,0,0-0.1,0-0.1c1.4,0.1,2.7,0.2,4.1,0.3
			c0.1,0,0.2,0.1,0.3,0.1c0.7-0.1,1-0.2,1.3-0.1c1,0.3,2,0.6,2.9,1c0.9,0.4,1.5,1,2.2,1.8c-1.3-0.3-2.4-0.6-3.5-0.9
			c-0.2,0-0.3-0.3-0.4-0.3c-0.4,0-0.8,0-1.1,0c0,0.1,0,0.1,0,0.2c1.2,0.3,2.3,0.7,3.5,1c0.6,0.2,1.2,0.2,1.7,0.4
			c0.1,0,0.2,0.2,0.3,0.3c0.8,1.5,1,3.1,0.8,4.9c-0.7-0.1-1.3-0.3-1.9-0.4c0,0,0,0.1,0,0.1c0.6,0.2,1.2,0.5,1.9,0.8
			c0,0.1-0.1,0.3-0.1,0.5c-1.7-0.4-3.4-0.8-5.1-1.2c0-0.3-0.1-0.5-0.1-0.9c0.7,0.1,1.4,0.3,2.1,0.4c0,0,0-0.1,0-0.1
			c-0.5-0.1-0.9-0.3-1.4-0.4c-0.3-0.1-0.7,0-0.9-0.5c-0.1-0.3-0.1-0.6-0.3-0.8c-0.8-0.8-1.8-1.4-3-1.5c-1.1,0-2.3,0-3.2,0
			c0.4,0.7-0.1,1.3,0,2.2c-1.8-0.5-3.4-0.9-5-1.3c0.3-1.9,0.7-3.6,1-5.3c0.7,0.1,1.4,0.2,2,0.3c0,0,0-0.1,0-0.1
			C-289.3,336.8-289.6,336.6-290,336.5z M-287.1,341.4c-0.5-0.2-1-0.3-1.4-0.5c0,0,0-0.1,0-0.1c0.3,0.1,0.6,0.1,0.9,0.2
			c0,0,0-0.1,0-0.1c-0.7-0.2-1.5-0.4-2.2-0.6C-288.9,340.8-288.3,341.5-287.1,341.4z M-281.4,341.4c0-0.1,0.1-0.2,0.1-0.3
			c-0.8-0.3-1.7-0.5-2.5-0.8c0,0.1,0,0.1-0.1,0.2C-283.1,340.8-282.2,341.1-281.4,341.4z"/>
		<path class="st0" d="M-272.9,345.5c0.3-1.6,0.6-3.1,0.9-4.7c1.7,0.4,3.2,0.8,4.9,1.2c-0.1,0.5-0.2,1-0.2,1.5
			c2.9,0.2,5.9-0.2,8.9,0.3c-0.2,0.9-0.3,1.6-0.4,2.3c-0.9-0.2-1.8-0.4-2.7-0.7c0,0.1,0,0.2-0.1,0.3c0.3,0,0.5,0.1,0.8,0.1
			c0.5,0.1,1.1,0.2,1.5,0.3c0.2,0.1,0.3,0.4,0.3,0.7c0,0.2-0.1,0.5-0.2,0.8c-0.2,0-0.5,0-0.7,0c-2.5,0-5-0.1-7.5,0
			c-2,0.1-3.7-0.7-5.6-1.1c0-0.3,0.1-0.6,0.1-0.9c0.8,0.2,1.6,0.4,2.5,0.6c0-0.7-0.1-0.6-0.7-0.5
			C-271.8,345.9-272.3,345.6-272.9,345.5z"/>
		<path class="st0" d="M-256.3,336.5c-0.1,0.4-0.2,0.9-0.2,1.3c-0.4-0.1-0.8-0.2-1.1-0.3c0,0,0,0.1,0,0.1c0.4,0.2,0.7,0.3,1.1,0.5
			c-0.3,0.4,0.1,1.1-0.7,1.3c0.6,0.4,0.1,0.9,0.1,1.3c-2,0.1-4,0-6-0.5c-1.3-0.4-2.7-0.6-4-0.9c0,0.2,0,0.4,0,0.4c0.4,0,0.8,0,1.1,0
			c0.4,0.1,0.9,0.2,1.3,0.3c0.2,0.1,0.6,0,0.6,0.4c0,0.1,0.5,0,0.7,0.1c0.2,0,0.4,0.1,0.5,0.1c0,0.1,0,0.1,0,0.2c-1.4,0-2.7,0-4.1,0
			c-0.1,0.3-0.2,0.6-0.2,0.9c-1.6-0.4-3.2-0.7-4.9-1.1c0.1-0.3,0.1-0.6,0.2-1c2,0.3,3.9,0.7,5.8,1c0,0,0-0.1,0-0.1
			c-0.9-0.2-1.8-0.3-2.6-0.6c-0.8-0.3-1.7,0-2.4-0.4c-0.2-0.1-0.4-0.3-0.7-0.4c0-0.1,0.1-0.1,0.1-0.2c0.5,0.1,1,0.3,1.4,0.4
			c0-0.1,0-0.1,0.1-0.2c-0.5-0.2-1-0.4-1.5-0.6c0.1-0.6,0.2-1.3,0.4-1.9C-266.3,336.5-261.3,336.5-256.3,336.5z M-258,339.3
			c0-0.1,0-0.1,0-0.2c-0.8-0.2-1.5-0.4-2.3-0.5c0,0.1,0,0.1,0,0.2C-259.5,339-258.7,339.2-258,339.3z"/>
		<path class="st0" d="M-301.1,345.2c0.5-2.9,1.1-5.7,1.6-8.6c0.4,0.1,0.9,0.1,1.3,0.2c0,0,0-0.1,0-0.1c-0.1-0.1-0.2-0.1-0.4-0.2
			c1.4,0,2.8,0,4.2,0c-0.1,0.5-0.2,1-0.3,1.5c-0.2,0-0.5-0.1-0.7-0.1c0,0,0,0.1,0,0.1c0.2,0.1,0.4,0.2,0.7,0.3
			c-0.3,1.6-0.6,3.2-0.9,4.9c-0.5-0.2-1.1,0-1.3-0.8c-0.1,0.2-0.1,0.3-0.2,0.4c-0.8-0.2-1.7-0.3-2.5-0.5c0,0.1,0,0.1,0,0.2
			c1.3,0.3,2.6,0.6,4.1,0.9c-0.4,0.5,0.1,1.3-0.8,1.4c0.4,0.4,0.5,1.1,0.1,1.5c-0.1,0.1-0.3,0.2-0.3,0.2
			C-298.1,346.1-299.6,345.7-301.1,345.2z"/>
		<path class="st0" d="M-273.1,349.7c1.3,1,2.9,1.2,4.5,1.4c0.7,0.1,1.4,0.3,2,0.5c0.5,0.1,1,0.3,1.5,0.5c0.1,0,0.1,0.1,0.2,0
			c2-0.6,3.7,0.5,5.6,0.7c-0.1,0.6-0.2,1.2-0.3,1.8c0,0.1-0.3,0.3-0.4,0.3c-1.1-0.1-2.2,0.2-3.2-0.3c-0.1,0-0.3,0.1-0.5,0.2
			c-0.2,0-0.4,0.1-0.5,0.1c-1.2,0-2.5,0-3.7,0c-1.4,0-2.9,0-4.3,0c-0.3,0-0.7-0.2-1-0.2c-0.3,0-0.7,0-1,0.1
			c-0.1,0.1-0.3,0.1-0.5,0.3c0.3-1.4,0.5-2.7,0.7-4c0.8,0.2,1.5,0.4,2.3,0.6c-0.1-0.2-0.2-0.3-0.3-0.5c2.9,0.7,5.6,1.3,8.4,2
			c0-0.1,0-0.2,0.1-0.3c-3.4-0.8-6.8-1.6-10.3-2.5c0.1-0.3,0.1-0.6,0.2-0.9C-273.5,349.7-273.3,349.7-273.1,349.7L-273.1,349.7z"/>
		<path class="st0" d="M-293.7,350.6c0.2-0.6,0.5-1.2,0.7-1.7c-0.5-0.2-0.1-0.6,0-1.1c1.7,0.4,3.3,0.8,4.9,1.1
			c-0.1,0.5-0.2,1-0.2,1.5c2.2,0.1,4.3,0.1,6.1-1.2c0.3-0.2,0.9-0.1,1.3,0c1.2,0.2,2.4,0.5,3.6,0.8c0.1,0,0.2,0.1,0.6,0.2
			c-0.8,0.8-1.5,1.5-2.3,2.2c-0.4,0.4-0.9,0.6-1.3,0.9c-0.2,0.1-0.5,0.2-0.7,0.2c-1-0.1-2-0.3-3-0.5c-2.8-0.7-5.5-1.3-8.3-2
			C-292.8,350.8-293.1,350.7-293.7,350.6z"/>
		<path class="st0" d="M-316.8,341.4c-0.2-0.2-0.4-0.3-0.7-0.5c0.2-0.4,0.4-0.9,0.7-1.4c0.7,0.3,1.3,0.6,1.9,0.8
			c0,0,0.1-0.1,0.1-0.1c-0.4-0.3-0.8-0.6-1-0.8c0.8-0.2,1.8-0.6,2.8-0.8c0.4-0.1,1,0.2,1.4,0.3c0.3,0.1,0.6,0.2,0.9,0.3
			c0-0.1,0-0.1,0.1-0.2c-0.6-0.2-1.2-0.4-1.8-0.7c0.3-0.4,0.7-0.6,1.2-0.4c0.8,0.2,1.5,0.4,2.3,0.6c0-0.1,0-0.1,0.1-0.2
			c-0.8-0.3-1.6-0.5-2.5-0.8c0.4-0.5,0.7-1,1.1-1.4c0.1-0.1,0.2-0.1,0.3-0.1c2.4-0.1,4.6,0.3,6.7,1.7c-0.2,0.4-0.2,1-0.8,1
			c0,0.3,0,0.5-0.1,0.7c-0.5,0.8-1.1,1.6-1.7,2.4c-2.1-1.2-4.2-2.2-6.4-2.8c0,0.1,0,0.1-0.1,0.2c0.7,0.2,1.3,0.5,2.1,0.8
			c-0.8,0.6-2.2,0.3-2.3,1.7c-0.3,0-0.5,0-0.9,0c0.4,0.2,0.7,0.3,1,0.5c0,0.1,0,0.1-0.1,0.2c-0.6-0.2-1.1-0.3-1.7-0.5
			C-315.1,341.8-316,341.6-316.8,341.4C-316.9,341.4-316.8,341.4-316.8,341.4z"/>
		<path class="st0" d="M-293.6,350.9c2.2,0.5,4.2,1,6.3,1.5c0.5,0.1,1,0.2,1.5,0.4c0.4,0.1,0.6,0.5,1,0.5c0.8,0.2,1.6,0.3,2.5,0.5
			c0.2,0,0.3,0.1,0.6,0.2c-0.9,0.5-1.7,0.7-2.6,0.4c0.1,0.2,0.1,0.3,0.2,0.5c-0.9,0.1-1.8,0.2-2.7,0.2c-1.2,0-2.4-0.3-3.5-0.1
			c-1.2,0.2-2.4,0-3.5-0.3c-0.1,0-0.2-0.1-0.3-0.1C-294.1,353.3-293.8,352.1-293.6,350.9z M-288.7,353.1c0,0.1,0,0.1-0.1,0.2
			c0.6,0.2,1.2,0.3,1.8,0.5c0-0.1,0-0.1,0.1-0.2C-287.5,353.5-288.1,353.3-288.7,353.1z"/>
		<path class="st0" d="M-302.5,352.5c0.2-1.2,0.5-2.4,0.7-3.6c1.7,0.4,3.3,0.8,4.9,1.1c0.1,1.1-0.5,3.4-0.9,3.6
			c0.6,0.3,0.2,0.7,0.1,1.1c0,0.1-0.4,0.3-0.6,0.3c-1.3,0-2.6,0-4,0c-0.2,0-0.4,0-0.6,0c0.1-0.7,0.2-1.4,0.4-2.1
			c1.2,0.3,2.4,0.7,3.6,1c0-0.1,0-0.1,0.1-0.2C-300,353-301.3,353-302.5,352.5z"/>
		<path class="st0" d="M-291.8,342.2c1.2,0.3,2.5,0.6,3.8,1c0.3,0.1,0.5,0.5,0.8,0.8c0.1,0,0.2,0,0.2,0c-0.2,0.4-0.4,0.9-0.5,1.3
			c-0.1,0.5,0,1.1-0.1,1.6c-0.1,0.5-0.2,1.1-0.3,1.7c-1.7-0.2-3.3-0.7-4.8-1.4c0.1-0.7,0.2-1.3,0.3-2.1c1.4,0.4,2.8,0.7,4.2,1
			c0-0.1,0-0.1,0-0.2c-1.2-0.3-2.4-0.6-3.6-0.9c-0.2,0-0.4-0.2-0.5-0.3c0-0.1,0.1-0.1,0.1-0.2c1.5,0.4,2.9,0.8,4.4,1.2
			c0-0.1,0-0.1,0-0.2c-1.4-0.4-2.9-0.8-4.4-1.3C-292.2,343.5-292,342.8-291.8,342.2z"/>
		<path class="st0" d="M-275,346.4c-0.5,0.8-0.3,1.9-1.2,2.3c0,0.3,0,0.5-0.1,0.8c-0.1,0.4-0.4,0.3-0.7,0.2
			c-1.3-0.3-2.6-0.5-3.9-0.8c-0.2,0-0.4-0.1-0.6-0.1c0.5-0.9,0.9-1.7,1.4-2.7c0.5,0.1,1.1,0.3,1.8,0.4c0,0,0-0.1,0-0.1
			c-0.4-0.1-0.8-0.2-1.2-0.4c-0.2-0.1-0.4-0.2-0.5-0.4c-0.1-0.1-0.1-0.2-0.1-0.3c0.1-0.1,0.2-0.1,0.3-0.1
			C-278.3,345.5-276.7,345.9-275,346.4z"/>
		<path class="st0" d="M-296.1,346.9c-0.3,0.3-0.4,0.5-0.6,0.8c0.6,0.6-0.2,1.3-0.1,2.1c-1.7-0.4-3.3-0.8-5-1.2
			c0.1-0.6,0.2-1.2,0.4-2c1.4,0.4,2.7,0.7,4,1c0-0.1,0-0.2,0.1-0.2c-1.3-0.3-2.7-0.6-4.1-1c0-0.3,0.1-0.5,0.1-0.8
			C-299.6,346.1-297.9,346.5-296.1,346.9z"/>
		<path class="st0" d="M-273.1,349.7c-0.2-0.1-0.3-0.3-0.6-0.5c0.1-0.7,0.3-1.5,0.4-2.3c1.6,0.4,3.2,0.8,4.9,1.2
			c-0.2,0.8-0.3,1.6-0.4,2.3C-270.2,350.2-271.7,350-273.1,349.7C-273.1,349.7-273.1,349.7-273.1,349.7z"/>
		<path class="st0" d="M-267.5,350.7c2.9,0,5.7,0,8.7,0c-0.1,0.7-0.2,1.3-0.4,2.1c-1.1-0.3-2.1-0.7-3.2-1c-0.2-0.7-0.9-0.7-1.5-1
			c-0.1-0.1-0.3,0-0.4,0.1c0.4,0.2,0.8,0.4,1.2,0.6c0,0.1,0,0.3-0.1,0.5c-1.5-0.4-2.9-0.7-4.4-1.1
			C-267.5,350.8-267.5,350.7-267.5,350.7z"/>
		<path class="st0" d="M-242.1,344.9c0.3,0.2,0.6,0.4,0.8,0.6c0,0,0,0.1-0.1,0.1c-0.3-0.1-0.6-0.1-1-0.2
			C-242.3,345.2-242.2,345.1-242.1,344.9z"/>
	</g>
	<text transform="matrix(1 0 0 1 -259.7366 334.0868)" class="st0 st2 st3">2022</text>
</g>
</svg>
