<?xml version="1.0" encoding="utf-8"?>
<!-- Generator: Adobe Illustrator 19.1.1, SVG Export Plug-In . SVG Version: 6.00 Build 0)  -->
<svg version="1.1" id="Layer_1" xmlns="http://www.w3.org/2000/svg" xmlns:xlink="http://www.w3.org/1999/xlink" x="0px" y="0px"
	 viewBox="-387 187 185 188" style="enable-background:new -387 187 185 188;" xml:space="preserve">
<style type="text/css">
	.st0{fill:#E6E6E4;}
	.st1{display:none;fill:#E6E6E4;}
	.st2{font-family:'1stEnterprisesCondensed';}
	.st3{font-size:13.4662px;}
	.st4{letter-spacing:1;}
</style>
<g>
	<g>
		<path class="st0" d="M-308.4,365.6c-1,0.9-2,1.6-2.8,2.1c-0.9,0.5-1.6,0.7-2.2,0.7c-0.6,0-1.3-0.1-2-0.4c-0.7-0.2-1.4-0.6-2-1
			c-1.1-0.8-2-1.8-2.6-3c-0.7-1.2-1-2.4-1-3.7c0-1.3,0.3-2.6,1-3.7c0.7-1.2,1.6-2.2,2.8-3.1c0.9-0.6,1.9-1.1,2.9-1.5
			c1.1-0.4,2.1-0.5,3.1-0.5c0.8,0,1.5,0.1,2,0.4c0.5,0.2,0.8,0.5,0.8,0.9c0,0.2-0.1,0.4-0.3,0.6c-0.2,0.2-0.7,0.6-1.5,1.1l-1.1,0.7
			c-0.4-0.5-0.9-0.9-1.4-1.2c-0.5-0.3-1.1-0.4-1.7-0.4c-1,0-1.8,0.4-2.4,1.2c-0.6,0.8-0.9,1.8-0.9,3.1c0,0.9,0.2,1.8,0.5,2.6
			c0.3,0.9,0.8,1.6,1.3,2.3c0.7,0.8,1.5,1.5,2.5,2c1,0.5,2,0.7,3,0.7c0.3,0,0.6,0,0.9-0.1c0.3-0.1,0.6-0.1,0.9-0.2L-308.4,365.6z"/>
		<path class="st0" d="M-297.6,368.4c-0.8-1.9-1.6-3.3-2.6-4.1c-0.9-0.8-2.1-1.3-3.4-1.3c-0.5,0-0.9,0.1-1.2,0.3
			c-0.3,0.2-0.5,0.4-0.5,0.7c0,0.5,0.3,0.9,0.9,1.3c0.6,0.4,1.3,0.5,2.1,0.5c0.3,0,0.6,0,0.9-0.1c0.3-0.1,0.5-0.2,0.8-0.3l0.3,0.4
			c-0.9,0.9-1.7,1.5-2.4,2c-0.7,0.4-1.4,0.7-2,0.7c-0.8,0-1.6-0.3-2.3-0.8c-0.7-0.5-1-1.1-1-1.8c0-1,0.6-1.9,1.8-2.8
			c1.2-0.9,2.7-1.4,4.6-1.7c-0.4-0.8-0.8-1.3-1.3-1.8c-0.5-0.4-0.9-0.6-1.4-0.6c-0.1,0-0.3,0-0.4,0.1c-0.1,0-0.3,0.1-0.4,0.2
			l-0.3-0.4l2.4-1.7c0.4-0.3,0.7-0.5,0.9-0.5c0.2-0.1,0.4-0.1,0.5-0.1c0.6,0,1.5,0.8,2.6,2.5c1.1,1.7,2.6,4.2,4.3,7.6L-297.6,368.4z
			"/>
		<path class="st0" d="M-292.8,368.4c0-0.3,0-0.6,0-1c0-0.4,0-0.9,0-1.6c0-2.9-0.1-4.7-0.2-5.4c-0.2-0.7-0.4-1-0.9-1
			c-0.1,0-0.3,0-0.5,0.1c-0.2,0-0.3,0.1-0.5,0.2l-0.1-0.5l2.3-1.6c0.6-0.4,1-0.7,1.3-0.8c0.2-0.1,0.5-0.2,0.7-0.2
			c0.8,0,1.2,2.1,1.2,6.2c0,1.6,0,2.8,0,3.7L-292.8,368.4z M-290.9,351.9c0.3,0.5,0.6,0.9,1,1.2c0.3,0.3,0.7,0.5,1.1,0.5l-0.8,0.6
			c-0.1,0-0.1,0.1-0.2,0.2c-0.9,0.7-1.6,1.1-2,1.1c-0.4,0-0.7-0.1-1-0.4c-0.3-0.3-0.6-0.6-0.8-1.1L-290.9,351.9z"/>
		<path class="st0" d="M-285.8,368.4c0-0.3,0-0.5,0-0.8c0-0.1,0-0.1,0-0.1c0-3.4-0.1-5.6-0.2-6.7c-0.2-1-0.5-1.5-0.9-1.5
			c-0.1,0-0.2,0-0.4,0.1c-0.2,0.1-0.3,0.1-0.6,0.2l-0.3-0.6l2.9-2c0.4-0.3,0.7-0.4,0.9-0.6c0.2-0.1,0.4-0.2,0.6-0.2
			c0.3,0,0.6,0.2,0.8,0.6c0.2,0.4,0.2,1,0.2,1.8c0,0.1,0,0.2,0,0.3c0,0.2,0,0.3,0,0.4c0.8-0.9,1.5-1.7,2.2-2.2s1.2-0.8,1.5-0.8
			c0.4,0,0.7,0.2,1,0.7c0.3,0.4,0.5,1.1,0.8,2l-2.9,2.3c-0.1-0.6-0.3-1-0.5-1.3c-0.2-0.3-0.5-0.5-0.7-0.5c-0.4,0-0.8,0.2-0.9,0.7
			c-0.2,0.5-0.3,1.6-0.3,3.5v0.4l0.1,2.3L-285.8,368.4z"/>
		<path class="st0" d="M-274.9,359.6c-0.2,0.3-0.3,0.7-0.4,1c-0.1,0.3-0.1,0.7-0.1,1.1c0,1.1,0.3,2,1,2.9c0.7,0.9,1.4,1.3,2.2,1.3
			c0.5,0,0.9-0.2,1.2-0.5c0.3-0.3,0.4-0.8,0.4-1.4c0-0.6-0.1-1.2-0.4-1.9c-0.2-0.7-0.6-1.2-1-1.8c-0.4-0.5-0.9-0.9-1.4-1.2
			c-0.5-0.3-1.1-0.4-1.7-0.4c-0.2,0-0.4,0-0.6,0c-0.2,0-0.4,0.1-0.6,0.1l-0.1-0.4c0.9-0.7,1.7-1.2,2.4-1.5c0.7-0.3,1.3-0.5,1.9-0.5
			c1.1,0,2.1,0.5,3,1.5c0.9,1,1.3,2.2,1.3,3.5c0,0.7-0.2,1.4-0.5,2.1c-0.3,0.7-0.8,1.4-1.5,2.1c-0.8,0.9-1.6,1.6-2.4,2
			c-0.7,0.4-1.4,0.7-2.1,0.7c-1.1,0-2-0.5-2.9-1.4c-0.9-1-1.3-2-1.3-3.2c0-0.7,0.2-1.4,0.7-2.1c0.5-0.6,1.3-1.4,2.6-2.3
			L-274.9,359.6z"/>
	</g>
	<g>
		<path class="st1" d="M-267.9,254c0-2,0.9-2.9,1.8-2.9s1.8,0.9,1.8,2.9c0,2-0.9,2.9-1.8,2.9S-267.9,256-267.9,254z M-265.4,253.9
			c0-1.6-0.4-1.9-0.8-1.9c-0.3,0-0.8,0.2-0.8,1.9c0,1.4,0.4,1.8,0.8,1.8C-265.8,255.7-265.4,255.3-265.4,253.9z"/>
	</g>
	<g>
		<path class="st0" d="M-385.3,320.9c1.9-10.1,3.8-20.1,5.7-30.3c5.5,0.1,11-0.1,16.4,0.1c0,0.7-0.1,0.7-0.8,0.6
			c-0.5-0.1-0.9-0.2-1.5,0c1,0.3,2,0.7,3.2,1.1c-0.3,0.3-0.6,0.7-1.1,1.1c1-0.5,1.9-0.9,2.9-1.3c-0.3-0.1-0.6-0.2-1-0.4
			c0.6-0.3,1.1-0.7,1.5-0.7c2.2,0,4.8,2.8,4.7,5.1c-0.4,0-0.9,0-1.3,0c0,0.1-0.1,0.2-0.1,0.4c0.5,0.1,1,0.2,1.5,0.4
			c-0.4,1.3,0.5,3.5-2.3,3.6c0.4,0.1,0.8,0.2,1.2,0.3c-1.1,2-2.8,3.2-4.5,4c1.2,1,2.6,1.7,3.4,2.9c0.7,1.1,1.4,2.6,0.7,4.4
			c-0.7-0.2-1.5-0.4-2.3-0.6c0,0.1-0.1,0.1-0.1,0.2c0.7,0.4,1.4,0.8,2.3,1.2c-0.3,1.6-1.1,3-2.3,4.2c-0.1,0.1-0.4,0.1-0.6,0.2
			c-2.4,0.2-4.4,1.1-6.3,2.6c-0.5,0.4-1.3,0.8-1.9,0.8c-1.1,0.1-2.3-0.1-3.4-0.2c-0.3,0-0.6,0.3-0.9,0.3c-4.2,0-8.5,0-12.7,0
			C-385,321-385.1,320.9-385.3,320.9z M-375.8,314c1.9,0.2,3.6,0.5,5.6,0.7c-0.4-0.2-0.7-0.3-0.9-0.4c1.3-0.1,2.5-0.1,3.7-0.4
			c1.7-0.4,2.7-1.8,2.6-3.3c0-0.3,0.1-0.7,0.2-0.9c-3.2-1.9-6.7-0.8-10.2-1.1C-375.1,310.5-375.5,312.3-375.8,314z M-373.7,302.8
			c1.2,0,2.2-0.1,3.3,0c1,0.1,2.1,0.4,3.1,0.7c-0.2-0.2-0.5-0.4-0.6-0.5c1-0.3,2-0.6,2.9-1.1c0.9-0.5,1.4-1.9,1.2-2.8
			c-0.3-1.1-1.1-1.5-2.1-1.5c-2.1-0.1-4.1-0.1-6.2-0.1c-0.2,0-0.5,0.3-0.6,0.4C-373.1,299.5-373.4,301.1-373.7,302.8z M-359.4,315.7
			c-1.2-1.1-2.6-1.3-4-1.4c0,0.1-0.1,0.2-0.1,0.4c0.5,0.1,1.1,0.3,1.7,0.4C-361.6,315.9-361,316.1-359.4,315.7z M-374.9,295.1
			c0.2,0.5,2.5,1,3.6,0.8c-0.2-0.2-0.3-0.6-0.5-0.6C-372.7,295.2-373.7,295.2-374.9,295.1z M-357.9,308.1c-0.9,0.1-1.7,0.2-2.8,0.3
			C-359,309.1-358,309-357.9,308.1z M-373.3,298.7c-0.9-0.3-1.6-0.5-2.4-0.8C-375.2,298.9-374.6,299.2-373.3,298.7z M-373.2,292.8
			c0,0.1,0,0.2-0.1,0.4c1,0.2,2,0.4,3,0.6c0-0.1,0-0.2,0.1-0.3C-371.2,293.2-372.2,293-373.2,292.8z M-370.7,294.2
			c0,0.1,0,0.2,0,0.3c0.5,0.1,1,1.3,1.8,0C-369.6,294.3-370.2,294.2-370.7,294.2z"/>
		<path class="st0" d="M-235.7,343.2c0.9,0,1.9,0,2.8,0c0-0.1,0-0.1,0-0.2c-0.6-0.2-1.3-0.3-1.9-0.5c1.5-1.5,3-3.1,4.4-4.5
			c1.2,0.8,2.3,1.6,3.5,2.2c2.1,1.1,4.3,1.5,6.6,1.2c0.6-0.1,1.2-0.3,1.8-0.5c0.8-0.4,1.3-1.1,1.1-1.9c-0.1-0.6-0.7-1.2-1.2-1.4
			c-1.9-0.7-3.8-1.1-5.7-1.8c-1.4-0.5-2.9-1-4.2-1.7c-2.5-1.4-3.5-3.7-3-6.5c0.7-4.1,2.8-7.2,6.8-8.8c0.7-0.3,1.4-0.3,2.1-0.6
			c3.9-1.5,9.6-1.2,13.4,0.9c0.7,0.4,1.3,0.8,1.9,1.2c0.4,0.3,0.7,0.6,1.1,0.9c-1.6,1.8-3.1,3.5-4.5,5c-2.9-0.7-5.5-1.6-8.3-2.1
			c-1.1-0.2-2.3,0.4-3.7,0.8c-0.6,0-1.6-0.1-2.6-0.2c0,0.1,0,0.2,0,0.2c0.9,0.2,1.7,0.4,2.6,0.5c-0.1,1.9,0.2,2.3,1.9,2.8
			c2,0.6,4,1.1,6,1.7c1,0.3,1.9,0.7,2.9,1.1c-0.2,0.4-0.4,0.6-0.6,1c-1.1-0.3-2.3-0.6-3.5-0.8c-0.1,0.1-0.3,0.4-0.5,0.9
			c0.9,0.3,1.9,0.6,2.9,0.9c0-0.1,0.1-0.2,0.1-0.3c-0.7-0.2-1.4-0.5-2.1-0.7c0-0.1,0.1-0.2,0.1-0.3c2.1,0.5,4.1,1.1,6.2,1.6
			c0,0.1,0,0.1,0,0.2c-1.1-0.2-2.1-0.5-3.2-0.7c0,0.1,0,0.2-0.1,0.3c0.6,0.2,1.2,0.5,1.9,0.6c2.1,0.4,2.8,1.3,2.3,3.5
			c-0.6,0.1-1.4-0.8-1.9,0.5c0.6,0.2,1.2,0.4,1.9,0.7c-0.4,2.1-1.2,4.1-2.7,5.7c-1.7,1.8-3.8,3.1-6.1,3.7c-3.1,0.8-6.2,1-9.3,0.3
			c-0.3-0.1-0.5-0.3-0.8-0.4c-0.2-0.1-0.4-0.2-0.7-0.2c-3.2,0-5.4-1.9-7.6-3.8C-235.8,343.5-235.8,343.4-235.7,343.2z M-226.4,342.2
			c1.5,0.5,3.1,0.9,4.7,0.4C-223.3,342.5-224.8,342.4-226.4,342.2z M-225.3,327c0-0.1,0.1-0.3,0.1-0.4c-1.1-0.3-2.2-0.7-3.3-1
			c0,0.1-0.1,0.3-0.1,0.4C-227.5,326.3-226.4,326.6-225.3,327z M-222.8,328.8c1.4,1.1,2.3,1.3,3.1,0.7
			C-220.7,329.3-221.7,329.1-222.8,328.8z M-219,344.4c0-0.1,0-0.2,0-0.3c-0.6-0.3-1.2-0.6-1.8-0.8c-0.1,0.2-0.3,0.4-0.4,0.6
			C-220.4,344.1-219.7,344.3-219,344.4z"/>
		<path class="st0" d="M-332.6,326c0.2,0.2,0.5,0.5,0.8,0.6c2.9,0.7,5.8,1.3,8.7,2.2c-0.1,0.1-0.3,0.1-0.3,0.1
			c2.1,0.4,4.3,0.8,6.7,1.3c-0.4,0.3-0.5,0.4-0.6,0.5c2.1,0.3,3,0.7,4.3,2c-1.1-0.2-2.1-0.3-3-0.5c0,0.1-0.1,0.3-0.1,0.4
			c1,0.3,2,0.6,3,0.9c1.2,0.3,2.2,1.9,1.8,3.2c-0.1,0.2,0.1,0.5,0,0.6c-0.2,0.3-0.6,0.5-0.8,0.7c0.2,0.1,0.4,0.2,0.9,0.4
			c-0.4,1.2-0.8,2.3-1.1,3.5c-0.7-0.2-1.2-0.3-1.8-0.5c0,0,0,0.1,0,0.1c0.5,0.2,0.9,0.4,1.6,0.7c-1,1.1-1.9,2.1-2.9,3.1
			c-0.1,0.1-0.6,0-0.8-0.1c-0.8-0.2-1.7-0.5-2.5-0.8c0.3,1.8,1.7,1,2.8,1.4c-3,1.7-5.8,3.2-9.3,1.3c0,0.1,0,0.3,0,0.4
			c0.5,0.2,1.1,0.4,1.6,0.6c0,0.1,0,0.2-0.1,0.4c-1.5-0.1-3.1,0-4.6-0.3c-1.4-0.3-2.7-0.9-4.2-1.4c0.9,0,1.9,0,2.8,0
			c-1.5-0.3-2.8-1.6-4.6-0.7c0.3,0.1,0.5,0.2,0.7,0.3c-0.1,0.1-0.2,0.2-0.2,0.3c-2-0.5-3.3-2-4.7-3c1.4-2.4,2.8-4.8,4.2-7.1
			c3.6,4.2,8.4,5.7,14,4.6c-0.1,0-0.2-0.1-0.3-0.2c-0.1-0.1-0.3-0.1-0.4-0.1c1.5-1.8,1.3-2.9-0.8-3.6c-2-0.7-4.1-1.1-6.1-1.7
			c-2.1-0.7-4.1-1.5-5.5-3.4c0.3,0,0.5-0.1,0.8-0.1c-1.3-0.3-1.9-1.5-1.8-3.4c0-0.5,0.2-1,0.2-1.5C-334.2,326-333.5,325.8-332.6,326
			L-332.6,326z M-312.5,337.4c-1.3-0.9-11.5-3.2-12.6-2.7c0.8,0.2,1.6,0.4,2.4,0.6c2.1,0.5,4.3,1,6.4,1.5c0.7,0.2,1.5,0.2,2,0.6
			C-313.6,338-313.1,337.9-312.5,337.4z M-325.1,343.2c0-0.1,0.1-0.2,0.1-0.3c-1.6-0.4-3.2-0.8-4.8-1.2c0,0.1,0,0.2-0.1,0.2
			C-328.3,342.3-326.7,342.7-325.1,343.2z M-319.4,330.9c0-0.1,0-0.3,0.1-0.4c-1.1-0.2-2.2-0.4-3.3-0.5c0,0.1,0,0.3-0.1,0.4
			C-321.6,330.5-320.5,330.7-319.4,330.9z M-322.4,347.4c0.1-0.1,0.1-0.2,0.2-0.2c-0.7-0.4-1.5-0.8-2.3-1.3
			C-324.4,346.6-323.5,347.2-322.4,347.4z"/>
		<path class="st0" d="M-289.1,318.1c5-0.5,9.4,1.8,14.1,2.5c-3-0.8-6.1-1.7-9.1-2.5c0-0.1,0-0.2,0-0.2c2.2,0.2,4.4,0.3,6.6,0.5
			c0.2,0,0.3,0.1,0.5,0.1c1.1-0.2,1.7-0.3,2.2-0.1c1.6,0.5,3.2,1,4.7,1.7c1.4,0.6,2.5,1.6,3.6,3c-2.1-0.5-3.9-1-5.7-1.4
			c-0.3-0.1-0.4-0.5-0.7-0.5c-0.6-0.1-1.2,0-1.8,0c0,0.1,0,0.2,0,0.3c1.9,0.6,3.8,1.1,5.7,1.7c0.9,0.3,1.9,0.4,2.8,0.6
			c0.2,0,0.4,0.3,0.5,0.5c1.3,2.4,1.6,5,1.2,7.9c-1.1-0.2-2.1-0.4-3.1-0.6c0,0.1,0,0.1-0.1,0.2c1,0.4,2,0.8,3,1.2
			c0,0.2-0.1,0.5-0.2,0.8c-2.8-0.7-5.4-1.3-8.2-2c0-0.4-0.1-0.8-0.2-1.4c1.2,0.2,2.3,0.4,3.3,0.6c0-0.1,0-0.1,0.1-0.2
			c-0.8-0.2-1.5-0.5-2.3-0.6c-0.6-0.1-1.2-0.1-1.4-0.8c-0.1-0.5-0.2-1-0.5-1.3c-1.3-1.4-2.9-2.3-4.9-2.4c-1.8-0.1-3.6,0-5.2,0
			c0.7,1.1-0.2,2.2,0,3.5c-2.8-0.7-5.5-1.4-8.1-2.1c0.6-3,1.1-5.8,1.6-8.6c1.2,0.2,2.2,0.4,3.3,0.5c0,0,0-0.1,0-0.1
			C-287.9,318.4-288.5,318.2-289.1,318.1z M-284.4,325.9c-0.9-0.3-1.6-0.6-2.2-0.8c0,0,0-0.1,0-0.1c0.5,0.1,1,0.2,1.5,0.3
			c0-0.1,0-0.1,0-0.2c-1.2-0.3-2.4-0.6-3.5-0.9C-287.3,324.9-286.3,326.1-284.4,325.9z M-275.2,325.9c0.1-0.2,0.1-0.3,0.2-0.5
			c-1.4-0.4-2.7-0.9-4.1-1.3c0,0.1-0.1,0.2-0.1,0.3C-277.9,325-276.5,325.4-275.2,325.9z"/>
		<path class="st0" d="M-261.5,332.6c0.5-2.6,1-5.1,1.4-7.6c2.7,0.7,5.2,1.3,7.9,2c-0.1,0.9-0.3,1.6-0.4,2.4
			c4.8,0.3,9.5-0.4,14.3,0.5c-0.3,1.4-0.5,2.6-0.7,3.7c-1.5-0.4-3-0.7-4.4-1.1c0,0.2-0.1,0.3-0.1,0.5c0.4,0.1,0.8,0.1,1.2,0.2
			c0.8,0.2,1.7,0.3,2.5,0.5c0.3,0.1,0.5,0.7,0.6,1.1c0.1,0.4-0.1,0.8-0.3,1.3c-0.4,0-0.7,0-1.1,0c-4,0-8.1-0.1-12.1,0
			c-3.2,0.1-6-1.2-9.1-1.7c0.1-0.5,0.1-0.9,0.2-1.4c1.4,0.3,2.7,0.7,4,1c-0.1-1.1-0.1-1-1.1-0.9
			C-259.5,333.2-260.5,332.8-261.5,332.6z"/>
		<path class="st0" d="M-234.5,318c-0.1,0.7-0.2,1.4-0.4,2.1c-0.6-0.2-1.2-0.4-1.8-0.6c0,0.1,0,0.1-0.1,0.2c0.6,0.3,1.2,0.5,1.8,0.8
			c-0.5,0.7,0.2,1.9-1.1,2.2c1,0.6,0.1,1.4,0.2,2.2c-3.3,0.2-6.5,0.1-9.7-0.9c-2.1-0.6-4.4-1-6.5-1.4c0,0.4,0.1,0.6,0.1,0.7
			c0.6,0,1.2-0.1,1.8,0c0.7,0.1,1.4,0.3,2.1,0.4c0.4,0.1,0.9,0,1,0.6c0,0.1,0.7,0.1,1.1,0.1c0.3,0,0.6,0.1,0.9,0.1
			c0,0.1,0,0.2,0,0.3c-2.2,0-4.4,0-6.7,0c-0.1,0.5-0.3,0.9-0.4,1.4c-2.6-0.6-5.2-1.1-7.9-1.7c0.1-0.5,0.2-1,0.3-1.5
			c3.2,0.6,6.2,1.1,9.3,1.7c0-0.1,0-0.2,0.1-0.2c-1.4-0.3-2.9-0.5-4.2-1c-1.3-0.6-2.7-0.1-3.9-0.7c-0.4-0.2-0.7-0.4-1.1-0.6
			c0-0.1,0.1-0.2,0.1-0.3c0.8,0.2,1.5,0.4,2.3,0.6c0-0.1,0.1-0.2,0.1-0.3c-0.8-0.3-1.6-0.7-2.4-1c0.2-1,0.4-2.1,0.6-3.1
			C-250.7,318-242.6,318-234.5,318z M-237.2,322.6c0-0.1,0-0.2,0.1-0.3c-1.2-0.3-2.5-0.6-3.7-0.9c0,0.1,0,0.2-0.1,0.3
			C-239.7,322-238.5,322.3-237.2,322.6z"/>
		<path class="st0" d="M-307.1,332.2c0.9-4.7,1.7-9.3,2.6-13.9c0.7,0.1,1.4,0.2,2.1,0.3c0-0.1,0-0.1,0.1-0.2
			c-0.2-0.1-0.3-0.2-0.6-0.3c2.3,0,4.5,0,6.9,0c-0.1,0.8-0.3,1.6-0.4,2.5c-0.4-0.1-0.8-0.1-1.1-0.1c0,0,0,0.1,0,0.1
			c0.3,0.1,0.6,0.3,1.1,0.4c-0.5,2.6-1,5.2-1.5,7.9c-0.8-0.3-1.8,0-2.2-1.2c-0.1,0.3-0.2,0.5-0.3,0.7c-1.3-0.3-2.7-0.5-4-0.8
			c0,0.1,0,0.2-0.1,0.3c2.1,0.5,4.3,0.9,6.6,1.4c-0.6,0.8,0.2,2.1-1.3,2.3c0.6,0.6,0.7,1.8,0.2,2.5c-0.1,0.2-0.4,0.3-0.6,0.3
			C-302.2,333.5-304.6,332.9-307.1,332.2z"/>
		<path class="st0" d="M-261.7,339.4c2.2,1.5,4.7,2,7.3,2.3c1.1,0.1,2.2,0.6,3.3,0.9c0.8,0.2,1.6,0.5,2.4,0.8c0.1,0,0.2,0.1,0.3,0.1
			c3.2-0.9,6.1,0.9,9.1,1.2c-0.2,1-0.2,2-0.5,2.8c-0.1,0.2-0.5,0.5-0.7,0.5c-1.7-0.1-3.5,0.4-5.2-0.4c-0.2-0.1-0.5,0.2-0.8,0.3
			c-0.3,0.1-0.6,0.2-0.9,0.2c-2,0-4,0-6,0c-2.3,0-4.6,0-6.9,0c-0.5,0-1.1-0.3-1.6-0.4c-0.5-0.1-1.1,0-1.6,0.1
			c-0.2,0.1-0.4,0.2-0.9,0.4c0.4-2.3,0.8-4.3,1.2-6.4c1.2,0.3,2.4,0.6,3.7,1c-0.2-0.3-0.3-0.4-0.6-0.7c4.6,1.1,9.1,2.1,13.6,3.2
			c0-0.1,0.1-0.3,0.1-0.4c-5.5-1.3-11-2.7-16.6-4c0.1-0.5,0.2-0.9,0.3-1.4C-262.3,339.3-262,339.4-261.7,339.4L-261.7,339.4z"/>
		<path class="st0" d="M-295,340.8c0.4-1,0.7-1.9,1.1-2.8c-0.8-0.3-0.2-1-0.1-1.7c2.7,0.6,5.3,1.2,8,1.8c-0.1,0.9-0.3,1.6-0.4,2.5
			c3.5,0.1,6.9,0.2,9.9-2c0.5-0.4,1.5-0.2,2.2-0.1c2,0.4,3.9,0.9,5.8,1.3c0.2,0,0.4,0.1,0.9,0.3c-1.3,1.3-2.5,2.5-3.7,3.6
			c-0.6,0.6-1.4,1-2.1,1.4c-0.3,0.2-0.8,0.4-1.2,0.3c-1.6-0.2-3.3-0.5-4.9-0.9c-4.5-1.1-9-2.2-13.5-3.3
			C-293.5,341.1-294.1,341-295,340.8z"/>
		<path class="st0" d="M-332.5,326c-0.4-0.3-0.7-0.5-1.2-0.8c0.3-0.7,0.7-1.4,1.1-2.2c1.1,0.5,2.1,0.9,3,1.4c0-0.1,0.1-0.1,0.1-0.2
			c-0.6-0.5-1.2-1-1.6-1.3c1.3-0.4,2.9-0.9,4.6-1.2c0.7-0.1,1.5,0.3,2.3,0.5c0.5,0.1,1,0.3,1.5,0.5c0-0.1,0.1-0.2,0.1-0.3
			c-1-0.4-1.9-0.7-3-1.1c0.5-0.7,1.1-0.9,2-0.6c1.2,0.4,2.5,0.7,3.7,1c0-0.1,0.1-0.2,0.1-0.3c-1.3-0.4-2.6-0.9-4-1.4
			c0.6-0.8,1.2-1.6,1.8-2.3c0.1-0.1,0.4-0.2,0.5-0.2c3.8-0.1,7.5,0.5,10.8,2.7c-0.3,0.7-0.3,1.7-1.2,1.7c-0.1,0.4,0,0.9-0.2,1.2
			c-0.8,1.3-1.8,2.6-2.7,3.9c-3.4-1.9-6.8-3.6-10.4-4.6c0,0.1-0.1,0.2-0.1,0.3c1.1,0.4,2.2,0.8,3.3,1.2c-1.3,0.9-3.6,0.5-3.8,2.8
			c-0.5,0-0.8,0-1.4,0c0.7,0.3,1.2,0.5,1.7,0.8c0,0.1-0.1,0.2-0.1,0.2c-0.9-0.3-1.8-0.5-2.8-0.7C-329.7,326.6-331.1,326.3-332.5,326
			C-332.6,326-332.5,326-332.5,326z"/>
		<path class="st0" d="M-294.9,341.2c3.5,0.8,6.9,1.6,10.2,2.4c0.8,0.2,1.6,0.3,2.4,0.6c0.6,0.2,1,0.7,1.6,0.9
			c1.3,0.3,2.7,0.5,4,0.8c0.2,0,0.5,0.2,0.9,0.4c-1.4,0.8-2.8,1.1-4.3,0.6c0.1,0.3,0.2,0.5,0.3,0.8c-1.5,0.1-2.9,0.3-4.4,0.3
			c-1.9,0-3.9-0.4-5.7-0.2c-2,0.3-3.8,0-5.7-0.5c-0.1,0-0.3-0.1-0.5-0.2C-295.6,345.2-295.3,343.3-294.9,341.2z M-287,344.9
			c0,0.1-0.1,0.2-0.1,0.3c1,0.3,2,0.5,2.9,0.8c0-0.1,0.1-0.2,0.1-0.3C-285.1,345.5-286.1,345.2-287,344.9z"/>
		<path class="st0" d="M-309.3,343.9c0.4-2,0.7-4,1.1-5.8c2.7,0.6,5.3,1.2,7.9,1.8c0.2,1.7-0.8,5.6-1.5,5.8c0.9,0.5,0.3,1.2,0.2,1.8
			c-0.1,0.2-0.6,0.4-1,0.4c-2.1,0-4.3,0-6.4,0c-0.3,0-0.6,0-1-0.1c0.2-1.1,0.4-2.2,0.6-3.4c2,0.5,3.9,1.1,5.8,1.6
			c0-0.1,0.1-0.2,0.1-0.3C-305.3,344.7-307.4,344.7-309.3,343.9z"/>
		<path class="st0" d="M-292.1,327.2c1.9,0.5,4,1,6.1,1.6c0.5,0.2,0.9,0.8,1.3,1.2c0.1,0,0.2,0,0.4,0c-0.3,0.7-0.7,1.4-0.8,2.1
			c-0.2,0.8-0.1,1.7-0.2,2.6c-0.1,0.9-0.3,1.7-0.5,2.7c-2.8-0.3-5.4-1.1-7.8-2.3c0.2-1.1,0.3-2.2,0.5-3.3c2.3,0.6,4.5,1.1,6.7,1.7
			c0-0.1,0.1-0.2,0.1-0.3c-2-0.5-3.9-0.9-5.9-1.4c-0.3-0.1-0.6-0.3-0.9-0.5c0.1-0.1,0.1-0.2,0.2-0.3c2.4,0.6,4.7,1.3,7.1,1.9
			c0-0.1,0-0.2,0.1-0.3c-2.3-0.7-4.7-1.4-7.2-2.1C-292.6,329.4-292.3,328.3-292.1,327.2z"/>
		<path class="st0" d="M-264.8,334c-0.8,1.3-0.5,3.1-2,3.7c-0.1,0.5-0.1,0.9-0.2,1.3c-0.2,0.6-0.6,0.4-1.1,0.3
			c-2.1-0.4-4.3-0.8-6.4-1.2c-0.3-0.1-0.7-0.2-0.9-0.2c0.7-1.4,1.5-2.8,2.3-4.3c0.8,0.2,1.8,0.4,2.9,0.7c0-0.1,0-0.1,0.1-0.2
			c-0.6-0.2-1.3-0.4-1.9-0.6c-0.3-0.1-0.6-0.4-0.9-0.6c-0.1-0.1-0.2-0.4-0.1-0.4c0.1-0.1,0.4-0.2,0.5-0.2
			C-270.1,332.7-267.6,333.3-264.8,334z"/>
		<path class="st0" d="M-299,334.9c-0.4,0.5-0.7,0.9-0.9,1.2c1,0.9-0.3,2.1-0.1,3.4c-2.8-0.7-5.4-1.3-8.1-2c0.2-1,0.4-2,0.6-3.2
			c2.2,0.6,4.4,1.1,6.5,1.7c0-0.1,0.1-0.2,0.1-0.4c-2.2-0.5-4.3-1-6.6-1.6c0.1-0.4,0.1-0.8,0.2-1.3
			C-304.5,333.5-301.9,334.2-299,334.9z"/>
		<path class="st0" d="M-261.6,339.4c-0.3-0.2-0.5-0.5-0.9-0.8c0.2-1.2,0.5-2.5,0.7-3.8c2.7,0.7,5.2,1.3,7.9,2
			c-0.3,1.3-0.5,2.5-0.7,3.7C-257.1,340.2-259.4,339.8-261.6,339.4L-261.6,339.4z"/>
		<path class="st0" d="M-252.6,340.9c4.6,0,9.3,0,14.1,0c-0.2,1.1-0.4,2.2-0.6,3.5c-1.8-0.5-3.5-1.1-5.2-1.6
			c-0.3-1.2-1.5-1.2-2.4-1.6c-0.2-0.1-0.4-0.1-0.7,0.1c0.6,0.3,1.3,0.6,2,0.9c0,0.2-0.1,0.4-0.1,0.7c-2.4-0.6-4.8-1.2-7.1-1.8
			C-252.7,341.1-252.7,341-252.6,340.9z"/>
		<path class="st0" d="M-211.6,331.6c0.5,0.4,0.9,0.7,1.3,1c0,0.1-0.1,0.2-0.1,0.2c-0.5-0.1-1-0.2-1.6-0.4
			C-211.8,332.1-211.7,331.9-211.6,331.6z"/>
	</g>
	<g>
		<path class="st0" d="M-343.6,313.5c1,0.6,2.4,0.3,2.1,2c-0.3,0-0.7,0-0.8,0c0.9,1.1,1.8,2.2,2.8,3.3c0.6,0.7,1.3,1.4,2,2.1
			c-0.9-0.1-1.8-0.2-3-0.3c1.3,0.6,2.3,1.2,3.3,1.6c0.9,0.3,1,0.9,1,1.7c-0.4,0-0.7,0-1.3-0.1c0.7,0.4,1.2,0.7,1.6,1
			c-0.1,0.1-0.1,0.2-0.2,0.4c-0.7-0.2-1.3-0.4-2-0.6c-3-0.8-6.1-1.5-9.1-2.3c-0.6-0.1-1.1-0.3-1.2-1c0-0.1-0.1-0.2-0.1-0.2
			c-0.1-0.1-0.3,0-0.3-0.1c-0.1-0.2-0.1-0.5-0.2-0.8c-1.5-0.9-3.2-1.9-5.1-3c0.6-1.9,1.2-4,1.8-6.1c1.7,0.3,3.4,0.3,4.9,1
			c1,0.5,2,0.6,2.9,1c0.3,0.1,0.7,0.1,1.1,0.1c0-0.1,0-0.2,0-0.3c-1.1-0.3-2.1-0.5-3.2-0.8c0.1-0.1,0.1-0.1,0.2-0.2
			c-0.2-0.2-0.3-0.6-0.5-0.6c-0.8-0.1-1.6-0.1-2.4-0.2c-0.9-0.1-1.9-0.3-2.8-0.4c0.3-1,0.5-1.9,0.7-2.9c2.2,0.1,4.2,1.7,6.8,1
			c-2.4-0.6-4.4-1-6.6-1.6c0.2-0.8,0.4-1.5,0.7-2.2c0.4,0,0.8,0,1.3,0c0-0.1,0-0.1,0-0.2c-0.4-0.1-0.7-0.2-1.1-0.2
			c-0.1-0.8,0.3-0.8,0.9-0.5c-0.2-0.4-0.3-0.7-0.4-1.1c0.4-0.1,0.7-0.1,1.1-0.2c0.5,0,1,0,1.4,0c0-0.1,0-0.2,0-0.3
			c-0.7,0-1.5-0.1-2.2-0.1c-0.1-0.1-0.1-0.2-0.2-0.3c0.6-0.9,1.4-1.7,1.9-2.7c0.9-1.7,2-0.4,3-0.3c1,0.1,1.9,0.5,2.9,0.7
			c0-0.1,0.1-0.3,0.1-0.4c-0.5-0.1-1-0.2-1.5-0.3c0.5-0.6,0.4-0.7-0.8-1.4c-0.7,0.7-1.5,0.7-2.6,0c0.5-0.6,1-1.2,1.5-1.7
			c0.5,0.1,1,0.3,1.5,0.4c0-0.1,0.1-0.1,0.1-0.2c-0.3-0.2-0.7-0.4-1.3-0.7c1.4-1,2.8-2,4.1-2.9c0.2-0.1,0.5,0,0.8,0
			c0.8,0.2,1.5,0.4,2.3,0.7c0-0.1,0.1-0.2,0.1-0.2c-0.7-0.3-1.3-0.6-2.1-1c1.1-0.9,2.2-0.9,3.4-0.5c0.9,0.3,1.8,0.7,2.8,0.9
			c-1.1-0.5-2.3-1-3.4-1.6c0,0,0-0.1,0-0.1c1.3,0.3,2.6,0.9,3.9,0.8c1.9-0.1,3.5,0.9,5.2,1.2c1.8,0.3,3.7,0.7,5.5,1.1
			c0.6,0.1,1.1,0.5,1.7,0.6c0.6,0.1,1.2,0.2,1.8,0.2c0.8,0,1.5,0,2,0.7c0.2,0.3,0.8,0.2,1.2,0.4c0.6,0.3,1.3,0.5,1.7,1
			c1.3,1.6,2.5,3.4,3.7,5.1c-0.1,0.1-0.2,0.2-0.2,0.2c-1.2-0.3-2.5-0.5-3.7-0.8c0,0.1-0.1,0.2-0.1,0.3c0.3,0.1,0.7,0.3,1,0.4
			c0.9,0.3,1.9,0.5,2.8,0.9c0.3,0.1,0.6,0.5,1.1,1c-0.7,0-1.1,0-1.5,0c0,0.1,0,0.2,0.1,0.2c2.1,0.2,1.7,2,2.2,3.3
			c0.1,0.3,0.1,0.6,0.1,1c-0.2,0.1-0.4,0.1-0.7,0.2c0,0.1,0,0.1,0,0.1c1.7,1.1,0.4,2.7,1,4.2c-3.3-0.8-6.4-1.5-9.5-2.1
			c0,0.1-0.1,0.3-0.1,0.4c0.9,0.2,1.7,0.5,2.6,0.7c1.9,0.4,3.8,0.7,5.8,1.2c1,0.2,1.1,0.6,0.7,2.1c-3.4-0.6-6.8-1.2-10.2-1.8
			c0-1.3,0-2.5,0-4c1.2,0.3,2.4,0.6,3.6,0.9c-0.2,1.8,1.2,0.1,1.7,0.5c-0.2-0.2-0.5-0.3-0.7-0.5c0,0,0-0.1,0-0.1
			c0.5,0.1,0.9,0.1,1.4,0.2c0-0.1,0-0.2,0-0.2c-2-0.4-3.9-0.8-5.9-1.2c0-0.1,0-0.2,0-0.3c0.6,0,1.3,0.1,1.9,0.1c0-0.1,0-0.1,0-0.2
			c-0.6-0.1-1.2-0.3-1.8-0.3c-0.6,0-0.9-0.3-1-0.8c-0.3-1.5-1.2-2.8-2.2-3.6c-3-2.8-6.6-4.2-10.8-3.1c-0.4,0.1-0.9,0.1-1.3,0
			c-1.4-0.3-2.8-0.5-4.2-0.9c-0.7-0.2-1.4-0.5-2.2-0.7c-0.3-0.1-0.7-0.1-1-0.1c0,0.1,0,0.2,0,0.3c2.3,0.6,4.7,1.2,7.2,1.8
			c-0.8,0.5-1.4,0.9-2.1,1.2c-0.1,0.1-0.4,0-0.6-0.1c-3.4-0.9-6.7-1.7-10.1-2.6c0,0.2-0.1,0.3-0.1,0.5c3.3,0.9,6.7,1.7,10,2.6
			c-0.6,1.6-1.8,0.7-2.7,0.8c-0.3,0-0.5-0.1-0.9,0.1c0.7,0.3,1.3,0.5,2,0.8c0,0.1,0.1,0.2,0.1,0.3c-0.6,0.3-1.2,0.6-1.7,0.9
			c0.1,0,0.3,0.2,0.5,0.3c-1.7,2.3-2.4,4.9-2.1,7.8C-342.3,313.5-342.8,313.5-343.6,313.5z"/>
		<path class="st0" d="M-336.8,334.6c-1.2,3.6-3.1,6.7-5.9,9.2c-0.9,0.8-1.9,1.4-2.8,2.2c-1.4,1.2-2.9,1.3-4.6,0.7
			c-1.4-0.4-2.7-0.9-4.1-1.3c-0.8-0.2-1.6-0.2-2.4-0.3c0.1-0.1,0.2-0.1,0.3-0.2c0-0.1,0-0.2,0-0.2c-0.5,0.1-1,0.2-1.6,0.2
			c-0.6,0-1.2-0.1-1.9,0.1c0.5,0.1,1,0.3,1.5,0.2c1-0.2,1.6,0.4,2.3,0.7c0.3,0.2,0.7,0.3,1,0.4c1.8,0.6,3.7,1.1,5.5,1.6
			c-5.3,2.5-14.1,2.5-21.1-2.9c-7.3-5.7-9.3-14.7-7.9-20.4c3.3,0,6.7,0,9.9,0c-0.2,1.5-0.6,2.9-0.6,4.4c0,1.4,0.3,2.9,0.5,4.3
			c-0.6-0.3-1.2-0.6-1.9-0.9c-0.1,0.1-0.1,0.2-0.2,0.3c0.4,0.3,0.9,0.5,1.3,0.8c0.7,0.5,1.5,1,2,1.7c3,4.4,8.6,6.1,13.5,4.1
			c0.4-0.2,0.9-0.2,1.4-0.3c0-0.1,0.1-0.5,0.2-0.6c3.1-2.2,5-5.2,6-9.2c0.8,0.4,1.5,0.8,2.3,1.1c0.6,0.2,1.2,0.3,1.8,0.4
			c1.3,0.3,2.8,0.2,4,0.9c0.7,0.4,1.3,0.6,2,0.6c-0.2,0.7-0.3,1.3-0.4,1.9c-1,0.2-1.8-0.9-2.8-0.1
			C-338.6,334.2-337.8,334.4-336.8,334.6z"/>
		<path class="st0" d="M-357.3,333.3c-2.5,0-4.4-1.9-4.4-4.4c0-2.4,2-4.4,4.4-4.4c2.4,0,4.4,2,4.4,4.4
			C-352.9,331.4-354.8,333.3-357.3,333.3z"/>
		<path class="st0" d="M-325.8,311.6c0,2.4-2,4.4-4.4,4.4c-2.4,0-4.4-2-4.4-4.4c0-2.5,1.9-4.4,4.4-4.4
			C-327.8,307.2-325.8,309.2-325.8,311.6z"/>
		<path class="st0" d="M-346.8,323.9c0.9,0.2,1.9,0.5,2.8,0.7c0-0.1,0.1-0.1,0.1-0.2c-0.5-0.3-1.1-0.5-1.7-0.8
			c1.8-0.5,3.2,0.8,4.8,1.1c1.6,0.2,3.2,0.8,4.8,1.3c-0.3,0.2-0.5,0.4-0.9,0.7c1,0.2,1.1,0.9,1,1.6c-0.1,1.1-0.1,2.1-0.2,3.4
			c-1.2-0.4-2.3-0.7-3.4-1c-1-0.3-2-0.5-3-0.8c-1.1-0.3-2.3-0.6-3.4-0.9c-0.2-0.1-0.5-0.4-0.5-0.6
			C-346.5,326.9-346.6,325.5-346.8,323.9z"/>
		<path class="st0" d="M-335.4,290.2c1.8-0.4,3.3-0.8,5-0.3c1.3,0.4,2.6,0.5,3.9,0.8c2.6,0.6,5.2,1.3,7.8,2.1
			c0.9,0.3,1.6,0.9,2.4,1.4c-0.1,0.1-0.1,0.2-0.2,0.4C-322.7,293.1-328.9,291.7-335.4,290.2z"/>
		<path class="st0" d="M-329.7,289.5c3,0,5.8,0.5,8.5,1.8C-324,290.8-326.9,290.2-329.7,289.5z"/>
	</g>
	<g>
		<path class="st0" d="M-342.9,311.7c1,0.6,2.4,0.3,2.1,2c-0.3,0-0.7,0-0.8,0c0.9,1.1,1.8,2.2,2.8,3.3c0.6,0.7,1.3,1.4,2,2.1
			c-0.9-0.1-1.8-0.2-3-0.3c1.3,0.6,2.3,1.2,3.3,1.6c0.9,0.3,1,0.9,1,1.7c-0.4,0-0.7,0-1.3-0.1c0.7,0.4,1.2,0.7,1.6,1
			c-0.1,0.1-0.1,0.2-0.2,0.4c-0.7-0.2-1.3-0.4-2-0.6c-3-0.8-6.1-1.5-9.1-2.3c-0.6-0.1-1.1-0.3-1.2-1c0-0.1-0.1-0.2-0.1-0.2
			c-0.1-0.1-0.3,0-0.3-0.1c-0.1-0.2-0.1-0.5-0.2-0.8c-1.5-0.9-3.2-1.9-5.1-3c0.6-1.9,1.2-4,1.8-6.1c1.7,0.3,3.4,0.3,4.9,1
			c1,0.5,2,0.6,2.9,1c0.3,0.1,0.7,0.1,1.1,0.1c0-0.1,0-0.2,0-0.3c-1.1-0.3-2.1-0.5-3.2-0.8c0.1-0.1,0.1-0.1,0.2-0.2
			c-0.2-0.2-0.3-0.6-0.5-0.6c-0.8-0.1-1.6-0.1-2.4-0.2c-0.9-0.1-1.9-0.3-2.8-0.4c0.3-1,0.5-1.9,0.7-2.9c2.2,0.1,4.2,1.7,6.8,1
			c-2.4-0.6-4.4-1-6.6-1.6c0.2-0.8,0.4-1.5,0.7-2.2c0.4,0,0.8,0,1.3,0c0-0.1,0-0.1,0-0.2c-0.4-0.1-0.7-0.2-1.1-0.2
			c-0.1-0.8,0.3-0.8,0.9-0.5c-0.2-0.4-0.3-0.7-0.4-1.1c0.4-0.1,0.7-0.1,1.1-0.2c0.5,0,1,0,1.4,0c0-0.1,0-0.2,0-0.3
			c-0.7,0-1.5-0.1-2.2-0.1c-0.1-0.1-0.1-0.2-0.2-0.3c0.6-0.9,1.4-1.7,1.9-2.7c0.9-1.7,2-0.4,3-0.3c1,0.1,1.9,0.5,2.9,0.7
			c0-0.1,0.1-0.3,0.1-0.4c-0.5-0.1-1-0.2-1.5-0.3c0.5-0.6,0.4-0.7-0.8-1.4c-0.7,0.7-1.5,0.7-2.6,0c0.5-0.6,1-1.2,1.5-1.7
			c0.5,0.1,1,0.3,1.5,0.4c0-0.1,0.1-0.1,0.1-0.2c-0.3-0.2-0.7-0.4-1.3-0.7c1.4-1,2.8-2,4.1-2.9c0.2-0.1,0.5,0,0.8,0
			c0.8,0.2,1.5,0.4,2.3,0.7c0-0.1,0.1-0.2,0.1-0.2c-0.7-0.3-1.3-0.6-2.1-1c1.1-0.9,2.2-0.9,3.4-0.5c0.9,0.3,1.8,0.7,2.8,0.9
			c-1.1-0.5-2.3-1-3.4-1.6c0,0,0-0.1,0-0.1c1.3,0.3,2.6,0.9,3.9,0.8c1.9-0.1,3.5,0.9,5.2,1.2c1.8,0.3,3.7,0.7,5.5,1.1
			c0.6,0.1,1.1,0.5,1.7,0.6c0.6,0.1,1.2,0.2,1.8,0.2c0.8,0,1.5,0,2,0.7c0.2,0.3,0.8,0.2,1.2,0.4c0.6,0.3,1.3,0.5,1.7,1
			c1.3,1.6,2.5,3.4,3.7,5.1c-0.1,0.1-0.2,0.2-0.2,0.2c-1.2-0.3-2.5-0.5-3.7-0.8c0,0.1-0.1,0.2-0.1,0.3c0.3,0.1,0.7,0.3,1,0.4
			c0.9,0.3,1.9,0.5,2.8,0.9c0.3,0.1,0.6,0.5,1.1,1c-0.7,0-1.1,0-1.5,0c0,0.1,0,0.2,0.1,0.2c2.1,0.2,1.7,2,2.2,3.3
			c0.1,0.3,0.1,0.6,0.1,1c-0.2,0.1-0.4,0.1-0.7,0.2c0,0.1,0,0.1,0,0.1c1.7,1.1,0.4,2.7,1,4.2c-3.3-0.8-6.4-1.5-9.5-2.1
			c0,0.1-0.1,0.3-0.1,0.4c0.9,0.2,1.7,0.5,2.6,0.7c1.9,0.4,3.8,0.7,5.8,1.2c1,0.2,1.1,0.6,0.7,2.1c-3.4-0.6-6.8-1.2-10.2-1.8
			c0-1.3,0-2.5,0-4c1.2,0.3,2.4,0.6,3.6,0.9c-0.2,1.8,1.2,0.1,1.7,0.5c-0.2-0.2-0.5-0.3-0.7-0.5c0,0,0-0.1,0-0.1
			c0.5,0.1,0.9,0.1,1.4,0.2c0-0.1,0-0.2,0-0.2c-2-0.4-3.9-0.8-5.9-1.2c0-0.1,0-0.2,0-0.3c0.6,0,1.3,0.1,1.9,0.1c0-0.1,0-0.1,0-0.2
			c-0.6-0.1-1.2-0.3-1.8-0.3c-0.6,0-0.9-0.3-1-0.8c-0.3-1.5-1.2-2.8-2.2-3.6c-3-2.8-6.6-4.2-10.8-3.1c-0.4,0.1-0.9,0.1-1.3,0
			c-1.4-0.3-2.8-0.5-4.2-0.9c-0.7-0.2-1.4-0.5-2.2-0.7c-0.3-0.1-0.7-0.1-1-0.1c0,0.1,0,0.2,0,0.3c2.3,0.6,4.7,1.2,7.2,1.8
			c-0.8,0.5-1.4,0.9-2.1,1.2c-0.1,0.1-0.4,0-0.6-0.1c-3.4-0.9-6.7-1.7-10.1-2.6c0,0.2-0.1,0.3-0.1,0.5c3.3,0.9,6.7,1.7,10,2.6
			c-0.6,1.6-1.8,0.7-2.7,0.8c-0.3,0-0.5-0.1-0.9,0.1c0.7,0.3,1.3,0.5,2,0.8c0,0.1,0.1,0.2,0.1,0.3c-0.6,0.3-1.2,0.6-1.7,0.9
			c0.1,0,0.3,0.2,0.5,0.3c-1.7,2.3-2.4,4.9-2.1,7.8C-341.6,311.7-342.1,311.7-342.9,311.7z"/>
		<path class="st0" d="M-336.1,332.9c-1.2,3.6-3.1,6.7-5.9,9.2c-0.9,0.8-1.9,1.4-2.8,2.2c-1.4,1.2-2.9,1.3-4.6,0.7
			c-1.4-0.4-2.7-0.9-4.1-1.3c-0.8-0.2-1.6-0.2-2.4-0.3c0.1-0.1,0.2-0.1,0.3-0.2c0-0.1,0-0.2,0-0.2c-0.5,0.1-1,0.2-1.6,0.2
			c-0.6,0-1.2-0.1-1.9,0.1c0.5,0.1,1,0.3,1.5,0.2c1-0.2,1.6,0.4,2.3,0.7c0.3,0.2,0.7,0.3,1,0.4c1.8,0.6,3.7,1.1,5.5,1.6
			c-5.3,2.5-14.1,2.5-21.1-2.9c-7.3-5.7-9.3-14.7-7.9-20.4c3.3,0,6.7,0,9.9,0c-0.2,1.5-0.6,2.9-0.6,4.4c0,1.4,0.3,2.9,0.5,4.3
			c-0.6-0.3-1.2-0.6-1.9-0.9c-0.1,0.1-0.1,0.2-0.2,0.3c0.4,0.3,0.9,0.5,1.3,0.8c0.7,0.5,1.5,1,2,1.7c3,4.4,8.6,6.1,13.5,4.1
			c0.4-0.2,0.9-0.2,1.4-0.3c0-0.1,0.1-0.5,0.2-0.6c3.1-2.2,5-5.2,6-9.2c0.8,0.4,1.5,0.8,2.3,1.1c0.6,0.2,1.2,0.3,1.8,0.4
			c1.3,0.3,2.8,0.2,4,0.9c0.7,0.4,1.3,0.6,2,0.6c-0.2,0.7-0.3,1.3-0.4,1.9c-1,0.2-1.8-0.9-2.8-0.1
			C-337.9,332.4-337.1,332.6-336.1,332.9z"/>
		<path class="st0" d="M-356.6,331.6c-2.5,0-4.4-1.9-4.4-4.4c0-2.4,2-4.4,4.4-4.4c2.4,0,4.4,2,4.4,4.4
			C-352.2,329.6-354.1,331.6-356.6,331.6z"/>
		<path class="st0" d="M-325.2,309.9c0,2.4-2,4.4-4.4,4.4c-2.4,0-4.4-2-4.4-4.4c0-2.5,1.9-4.4,4.4-4.4
			C-327.1,305.5-325.2,307.4-325.2,309.9z"/>
		<path class="st0" d="M-346.1,322.1c0.9,0.2,1.9,0.5,2.8,0.7c0-0.1,0.1-0.1,0.1-0.2c-0.5-0.3-1.1-0.5-1.7-0.8
			c1.8-0.5,3.2,0.8,4.8,1.1c1.6,0.2,3.2,0.8,4.8,1.3c-0.3,0.2-0.5,0.4-0.9,0.7c1,0.2,1.1,0.9,1,1.6c-0.1,1.1-0.1,2.1-0.2,3.4
			c-1.2-0.4-2.3-0.7-3.4-1c-1-0.3-2-0.5-3-0.8c-1.1-0.3-2.3-0.6-3.4-0.9c-0.2-0.1-0.5-0.4-0.5-0.6
			C-345.8,325.1-345.9,323.7-346.1,322.1z"/>
		<path class="st0" d="M-334.7,288.4c1.8-0.4,3.3-0.8,5-0.3c1.3,0.4,2.6,0.5,3.9,0.8c2.6,0.6,5.2,1.3,7.8,2.1
			c0.9,0.3,1.6,0.9,2.4,1.4c-0.1,0.1-0.1,0.2-0.2,0.4C-322,291.3-328.3,289.9-334.7,288.4z"/>
		<path class="st0" d="M-329,287.8c3,0,5.8,0.5,8.5,1.8C-323.3,289-326.2,288.4-329,287.8z"/>
	</g>
	<g>
		<path class="st0" d="M-384.1,319.6c1.9-10.1,3.8-20.1,5.7-30.3c5.5,0.1,11-0.1,16.4,0.1c0,0.7-0.1,0.7-0.8,0.6
			c-0.5-0.1-0.9-0.2-1.5,0c1,0.3,2,0.7,3.2,1.1c-0.3,0.3-0.6,0.7-1.1,1.1c1-0.5,1.9-0.9,2.9-1.3c-0.3-0.1-0.6-0.2-1-0.4
			c0.6-0.3,1.1-0.7,1.5-0.7c2.2,0,4.8,2.8,4.7,5.1c-0.4,0-0.9,0-1.3,0c0,0.1-0.1,0.2-0.1,0.4c0.5,0.1,1,0.2,1.5,0.4
			c-0.4,1.3,0.5,3.5-2.3,3.6c0.4,0.1,0.8,0.2,1.2,0.3c-1.1,2-2.8,3.2-4.5,4c1.2,1,2.6,1.7,3.4,2.9c0.7,1.1,1.4,2.6,0.7,4.4
			c-0.7-0.2-1.5-0.4-2.3-0.6c0,0.1-0.1,0.1-0.1,0.2c0.7,0.4,1.4,0.8,2.3,1.2c-0.3,1.6-1.1,3-2.3,4.2c-0.1,0.1-0.4,0.1-0.6,0.2
			c-2.4,0.2-4.4,1.1-6.3,2.6c-0.5,0.4-1.3,0.8-1.9,0.8c-1.1,0.1-2.3-0.1-3.4-0.2c-0.3,0-0.6,0.3-0.9,0.3c-4.2,0-8.5,0-12.7,0
			C-383.8,319.7-383.9,319.7-384.1,319.6z M-374.6,312.8c1.9,0.2,3.6,0.5,5.6,0.7c-0.4-0.2-0.7-0.3-0.9-0.4c1.3-0.1,2.5-0.1,3.7-0.4
			c1.7-0.4,2.7-1.8,2.6-3.3c0-0.3,0.1-0.7,0.2-0.9c-3.2-1.9-6.7-0.8-10.2-1.1C-373.9,309.3-374.3,311-374.6,312.8z M-372.5,301.5
			c1.2,0,2.2-0.1,3.3,0c1,0.1,2.1,0.4,3.1,0.7c-0.2-0.2-0.5-0.4-0.6-0.5c1-0.3,2-0.6,2.9-1.1c0.9-0.5,1.4-1.9,1.2-2.8
			c-0.3-1.1-1.1-1.5-2.1-1.5c-2.1-0.1-4.1-0.1-6.2-0.1c-0.2,0-0.5,0.3-0.6,0.4C-371.9,298.2-372.2,299.8-372.5,301.5z M-358.2,314.5
			c-1.2-1.1-2.6-1.3-4-1.4c0,0.1-0.1,0.2-0.1,0.4c0.5,0.1,1.1,0.3,1.7,0.4C-360.4,314.7-359.8,314.9-358.2,314.5z M-373.6,293.8
			c0.2,0.5,2.5,1,3.6,0.8c-0.2-0.2-0.3-0.6-0.5-0.6C-371.5,294-372.5,293.9-373.6,293.8z M-356.7,306.8c-0.9,0.1-1.7,0.2-2.8,0.3
			C-357.8,307.9-356.8,307.7-356.7,306.8z M-372.1,297.4c-0.9-0.3-1.6-0.5-2.4-0.8C-373.9,297.7-373.3,297.9-372.1,297.4z
			 M-372,291.5c0,0.1,0,0.2-0.1,0.4c1,0.2,2,0.4,3,0.6c0-0.1,0-0.2,0.1-0.3C-370,291.9-371,291.7-372,291.5z M-369.5,292.9
			c0,0.1,0,0.2,0,0.3c0.5,0.1,1,1.3,1.8,0C-368.4,293.1-369,293-369.5,292.9z"/>
		<path class="st0" d="M-234.5,342c0.9,0,1.9,0,2.8,0c0-0.1,0-0.1,0-0.2c-0.6-0.2-1.3-0.3-1.9-0.5c1.5-1.5,3-3.1,4.4-4.5
			c1.2,0.8,2.3,1.6,3.5,2.2c2.1,1.1,4.3,1.5,6.6,1.2c0.6-0.1,1.2-0.3,1.8-0.5c0.8-0.4,1.3-1.1,1.1-1.9c-0.1-0.6-0.7-1.2-1.2-1.4
			c-1.9-0.7-3.8-1.1-5.7-1.8c-1.4-0.5-2.9-1-4.2-1.7c-2.5-1.4-3.5-3.7-3-6.5c0.7-4.1,2.8-7.2,6.8-8.8c0.7-0.3,1.4-0.3,2.1-0.6
			c3.9-1.5,9.6-1.2,13.4,0.9c0.7,0.4,1.3,0.8,1.9,1.2c0.4,0.3,0.7,0.6,1.1,0.9c-1.6,1.8-3.1,3.5-4.5,5c-2.9-0.7-5.5-1.6-8.3-2.1
			c-1.1-0.2-2.3,0.4-3.7,0.8c-0.6,0-1.6-0.1-2.6-0.2c0,0.1,0,0.2,0,0.2c0.9,0.2,1.7,0.4,2.6,0.5c-0.1,1.9,0.2,2.3,1.9,2.8
			c2,0.6,4,1.1,6,1.7c1,0.3,1.9,0.7,2.9,1.1c-0.2,0.4-0.4,0.6-0.6,1c-1.1-0.3-2.3-0.6-3.5-0.8c-0.1,0.1-0.3,0.4-0.5,0.9
			c0.9,0.3,1.9,0.6,2.9,0.9c0-0.1,0.1-0.2,0.1-0.3c-0.7-0.2-1.4-0.5-2.1-0.7c0-0.1,0.1-0.2,0.1-0.3c2.1,0.5,4.1,1.1,6.2,1.6
			c0,0.1,0,0.1,0,0.2c-1.1-0.2-2.1-0.5-3.2-0.7c0,0.1,0,0.2-0.1,0.3c0.6,0.2,1.2,0.5,1.9,0.6c2.1,0.4,2.8,1.3,2.3,3.5
			c-0.6,0.1-1.4-0.8-1.9,0.5c0.6,0.2,1.2,0.4,1.9,0.7c-0.4,2.1-1.2,4.1-2.7,5.7c-1.7,1.8-3.8,3.1-6.1,3.7c-3.1,0.8-6.2,1-9.3,0.3
			c-0.3-0.1-0.5-0.3-0.8-0.4c-0.2-0.1-0.4-0.2-0.7-0.2c-3.2,0-5.4-1.9-7.6-3.8C-234.6,342.3-234.6,342.1-234.5,342z M-225.2,341
			c1.5,0.5,3.1,0.9,4.7,0.4C-222,341.3-223.6,341.1-225.2,341z M-224.1,325.7c0-0.1,0.1-0.3,0.1-0.4c-1.1-0.3-2.2-0.7-3.3-1
			c0,0.1-0.1,0.3-0.1,0.4C-226.3,325-225.2,325.4-224.1,325.7z M-221.6,327.6c1.4,1.1,2.3,1.3,3.1,0.7
			C-219.5,328.1-220.5,327.9-221.6,327.6z M-217.8,343.2c0-0.1,0-0.2,0-0.3c-0.6-0.3-1.2-0.6-1.8-0.8c-0.1,0.2-0.3,0.4-0.4,0.6
			C-219.2,342.8-218.5,343-217.8,343.2z"/>
		<path class="st0" d="M-331.3,324.7c0.2,0.2,0.5,0.5,0.8,0.6c2.9,0.7,5.8,1.3,8.7,2.2c-0.1,0.1-0.3,0.1-0.3,0.1
			c2.1,0.4,4.3,0.8,6.7,1.3c-0.4,0.3-0.5,0.4-0.6,0.5c2.1,0.3,3,0.7,4.3,2c-1.1-0.2-2.1-0.3-3-0.5c0,0.1-0.1,0.3-0.1,0.4
			c1,0.3,2,0.6,3,0.9c1.2,0.3,2.2,1.9,1.8,3.2c-0.1,0.2,0.1,0.5,0,0.6c-0.2,0.3-0.6,0.5-0.8,0.7c0.2,0.1,0.4,0.2,0.9,0.4
			c-0.4,1.2-0.8,2.3-1.1,3.5c-0.7-0.2-1.2-0.3-1.8-0.5c0,0,0,0.1,0,0.1c0.5,0.2,0.9,0.4,1.6,0.7c-1,1.1-1.9,2.1-2.9,3.1
			c-0.1,0.1-0.6,0-0.8-0.1c-0.8-0.2-1.7-0.5-2.5-0.8c0.3,1.8,1.7,1,2.8,1.4c-3,1.7-5.8,3.2-9.3,1.3c0,0.1,0,0.3,0,0.4
			c0.5,0.2,1.1,0.4,1.6,0.6c0,0.1,0,0.2-0.1,0.4c-1.5-0.1-3.1,0-4.6-0.3c-1.4-0.3-2.7-0.9-4.2-1.4c0.9,0,1.9,0,2.8,0
			c-1.5-0.3-2.8-1.6-4.6-0.7c0.3,0.1,0.5,0.2,0.7,0.3c-0.1,0.1-0.2,0.2-0.2,0.3c-2-0.5-3.3-2-4.7-3c1.4-2.4,2.8-4.8,4.2-7.1
			c3.6,4.2,8.4,5.7,14,4.6c-0.1,0-0.2-0.1-0.3-0.2c-0.1-0.1-0.3-0.1-0.4-0.1c1.5-1.8,1.3-2.9-0.8-3.6c-2-0.7-4.1-1.1-6.1-1.7
			c-2.1-0.7-4.1-1.5-5.5-3.4c0.3,0,0.5-0.1,0.8-0.1c-1.3-0.3-1.9-1.5-1.8-3.4c0-0.5,0.2-1,0.2-1.5
			C-333,324.8-332.3,324.5-331.3,324.7L-331.3,324.7z M-311.3,336.2c-1.3-0.9-11.5-3.2-12.6-2.7c0.8,0.2,1.6,0.4,2.4,0.6
			c2.1,0.5,4.3,1,6.4,1.5c0.7,0.2,1.5,0.2,2,0.6C-312.3,336.7-311.9,336.6-311.3,336.2z M-323.9,341.9c0-0.1,0.1-0.2,0.1-0.3
			c-1.6-0.4-3.2-0.8-4.8-1.2c0,0.1,0,0.2-0.1,0.2C-327.1,341.1-325.5,341.5-323.9,341.9z M-318.2,329.6c0-0.1,0-0.3,0.1-0.4
			c-1.1-0.2-2.2-0.4-3.3-0.5c0,0.1,0,0.3-0.1,0.4C-320.4,329.3-319.3,329.4-318.2,329.6z M-321.1,346.1c0.1-0.1,0.1-0.2,0.2-0.2
			c-0.7-0.4-1.5-0.8-2.3-1.3C-323.2,345.3-322.3,345.9-321.1,346.1z"/>
		<path class="st0" d="M-287.9,316.8c5-0.5,9.4,1.8,14.1,2.5c-3-0.8-6.1-1.7-9.1-2.5c0-0.1,0-0.2,0-0.2c2.2,0.2,4.4,0.3,6.6,0.5
			c0.2,0,0.3,0.1,0.5,0.1c1.1-0.2,1.7-0.3,2.2-0.1c1.6,0.5,3.2,1,4.7,1.7c1.4,0.6,2.5,1.6,3.6,3c-2.1-0.5-3.9-1-5.7-1.4
			c-0.3-0.1-0.4-0.5-0.7-0.5c-0.6-0.1-1.2,0-1.8,0c0,0.1,0,0.2,0,0.3c1.9,0.6,3.8,1.1,5.7,1.7c0.9,0.3,1.9,0.4,2.8,0.6
			c0.2,0,0.4,0.3,0.5,0.5c1.3,2.4,1.6,5,1.2,7.9c-1.1-0.2-2.1-0.4-3.1-0.6c0,0.1,0,0.1-0.1,0.2c1,0.4,2,0.8,3,1.2
			c0,0.2-0.1,0.5-0.2,0.8c-2.8-0.7-5.4-1.3-8.2-2c0-0.4-0.1-0.8-0.2-1.4c1.2,0.2,2.3,0.4,3.3,0.6c0-0.1,0-0.1,0.1-0.2
			c-0.8-0.2-1.5-0.5-2.3-0.6c-0.6-0.1-1.2-0.1-1.4-0.8c-0.1-0.5-0.2-1-0.5-1.3c-1.3-1.4-2.9-2.3-4.9-2.4c-1.8-0.1-3.6,0-5.2,0
			c0.7,1.1-0.2,2.2,0,3.5c-2.8-0.7-5.5-1.4-8.1-2.1c0.6-3,1.1-5.8,1.6-8.6c1.2,0.2,2.2,0.4,3.3,0.5c0,0,0-0.1,0-0.1
			C-286.7,317.2-287.3,317-287.9,316.8z M-283.2,324.7c-0.9-0.3-1.6-0.6-2.2-0.8c0,0,0-0.1,0-0.1c0.5,0.1,1,0.2,1.5,0.3
			c0-0.1,0-0.1,0-0.2c-1.2-0.3-2.4-0.6-3.5-0.9C-286.1,323.6-285.1,324.9-283.2,324.7z M-274,324.7c0.1-0.2,0.1-0.3,0.2-0.5
			c-1.4-0.4-2.7-0.9-4.1-1.3c0,0.1-0.1,0.2-0.1,0.3C-276.6,323.7-275.3,324.2-274,324.7z"/>
		<path class="st0" d="M-260.2,331.3c0.5-2.6,1-5.1,1.4-7.6c2.7,0.7,5.2,1.3,7.9,2c-0.1,0.9-0.3,1.6-0.4,2.4
			c4.8,0.3,9.5-0.4,14.3,0.5c-0.3,1.4-0.5,2.6-0.7,3.7c-1.5-0.4-3-0.7-4.4-1.1c0,0.2-0.1,0.3-0.1,0.5c0.4,0.1,0.8,0.1,1.2,0.2
			c0.8,0.2,1.7,0.3,2.5,0.5c0.3,0.1,0.5,0.7,0.6,1.1c0.1,0.4-0.1,0.8-0.3,1.3c-0.4,0-0.7,0-1.1,0c-4,0-8.1-0.1-12.1,0
			c-3.2,0.1-6-1.2-9.1-1.7c0.1-0.5,0.1-0.9,0.2-1.4c1.4,0.3,2.7,0.7,4,1c-0.1-1.1-0.1-1-1.1-0.9
			C-258.3,331.9-259.3,331.5-260.2,331.3z"/>
		<path class="st0" d="M-233.2,316.7c-0.1,0.7-0.2,1.4-0.4,2.1c-0.6-0.2-1.2-0.4-1.8-0.6c0,0.1,0,0.1-0.1,0.2
			c0.6,0.3,1.2,0.5,1.8,0.8c-0.5,0.7,0.2,1.9-1.1,2.2c1,0.6,0.1,1.4,0.2,2.2c-3.3,0.2-6.5,0.1-9.7-0.9c-2.1-0.6-4.4-1-6.5-1.4
			c0,0.4,0.1,0.6,0.1,0.7c0.6,0,1.2-0.1,1.8,0c0.7,0.1,1.4,0.3,2.1,0.4c0.4,0.1,0.9,0,1,0.6c0,0.1,0.7,0.1,1.1,0.1
			c0.3,0,0.6,0.1,0.9,0.1c0,0.1,0,0.2,0,0.3c-2.2,0-4.4,0-6.7,0c-0.1,0.5-0.3,0.9-0.4,1.4c-2.6-0.6-5.2-1.1-7.9-1.7
			c0.1-0.5,0.2-1,0.3-1.5c3.2,0.6,6.2,1.1,9.3,1.7c0-0.1,0-0.2,0.1-0.2c-1.4-0.3-2.9-0.5-4.2-1c-1.3-0.6-2.7-0.1-3.9-0.7
			c-0.4-0.2-0.7-0.4-1.1-0.6c0-0.1,0.1-0.2,0.1-0.3c0.8,0.2,1.5,0.4,2.3,0.6c0-0.1,0.1-0.2,0.1-0.3c-0.8-0.3-1.6-0.7-2.4-1
			c0.2-1,0.4-2.1,0.6-3.1C-249.4,316.7-241.4,316.7-233.2,316.7z M-236,321.4c0-0.1,0-0.2,0.1-0.3c-1.2-0.3-2.5-0.6-3.7-0.9
			c0,0.1,0,0.2-0.1,0.3C-238.5,320.8-237.3,321.1-236,321.4z"/>
		<path class="st0" d="M-305.9,330.9c0.9-4.7,1.7-9.3,2.6-13.9c0.7,0.1,1.4,0.2,2.1,0.3c0-0.1,0-0.1,0.1-0.2
			c-0.2-0.1-0.3-0.2-0.6-0.3c2.3,0,4.5,0,6.9,0c-0.1,0.8-0.3,1.6-0.4,2.5c-0.4-0.1-0.8-0.1-1.1-0.1c0,0,0,0.1,0,0.1
			c0.3,0.1,0.6,0.3,1.1,0.4c-0.5,2.6-1,5.2-1.5,7.9c-0.8-0.3-1.8,0-2.2-1.2c-0.1,0.3-0.2,0.5-0.3,0.7c-1.3-0.3-2.7-0.5-4-0.8
			c0,0.1,0,0.2-0.1,0.3c2.1,0.5,4.3,0.9,6.6,1.4c-0.6,0.8,0.2,2.1-1.3,2.3c0.6,0.6,0.7,1.8,0.2,2.5c-0.1,0.2-0.4,0.3-0.6,0.3
			C-301,332.3-303.4,331.6-305.9,330.9z"/>
		<path class="st0" d="M-260.5,338.2c2.2,1.5,4.7,2,7.3,2.3c1.1,0.1,2.2,0.6,3.3,0.9c0.8,0.2,1.6,0.5,2.4,0.8c0.1,0,0.2,0.1,0.3,0.1
			c3.2-0.9,6.1,0.9,9.1,1.2c-0.2,1-0.2,2-0.5,2.8c-0.1,0.2-0.5,0.5-0.7,0.5c-1.7-0.1-3.5,0.4-5.2-0.4c-0.2-0.1-0.5,0.2-0.8,0.3
			c-0.3,0.1-0.6,0.2-0.9,0.2c-2,0-4,0-6,0c-2.3,0-4.6,0-6.9,0c-0.5,0-1.1-0.3-1.6-0.4c-0.5-0.1-1.1,0-1.6,0.1
			c-0.2,0.1-0.4,0.2-0.9,0.4c0.4-2.3,0.8-4.3,1.2-6.4c1.2,0.3,2.4,0.6,3.7,1c-0.2-0.3-0.3-0.4-0.6-0.7c4.6,1.1,9.1,2.1,13.6,3.2
			c0-0.1,0.1-0.3,0.1-0.4c-5.5-1.3-11-2.7-16.6-4c0.1-0.5,0.2-0.9,0.3-1.4C-261.1,338-260.8,338.1-260.5,338.2L-260.5,338.2z"/>
		<path class="st0" d="M-293.8,339.5c0.4-1,0.7-1.9,1.1-2.8c-0.8-0.3-0.2-1-0.1-1.7c2.7,0.6,5.3,1.2,8,1.8c-0.1,0.9-0.3,1.6-0.4,2.5
			c3.5,0.1,6.9,0.2,9.9-2c0.5-0.4,1.5-0.2,2.2-0.1c2,0.4,3.9,0.9,5.8,1.3c0.2,0,0.4,0.1,0.9,0.3c-1.3,1.3-2.5,2.5-3.7,3.6
			c-0.6,0.6-1.4,1-2.1,1.4c-0.3,0.2-0.8,0.4-1.2,0.3c-1.6-0.2-3.3-0.5-4.9-0.9c-4.5-1.1-9-2.2-13.5-3.3
			C-292.3,339.9-292.9,339.7-293.8,339.5z"/>
		<path class="st0" d="M-331.3,324.8c-0.4-0.3-0.7-0.5-1.2-0.8c0.3-0.7,0.7-1.4,1.1-2.2c1.1,0.5,2.1,0.9,3,1.4
			c0-0.1,0.1-0.1,0.1-0.2c-0.6-0.5-1.2-1-1.6-1.3c1.3-0.4,2.9-0.9,4.6-1.2c0.7-0.1,1.5,0.3,2.3,0.5c0.5,0.1,1,0.3,1.5,0.5
			c0-0.1,0.1-0.2,0.1-0.3c-1-0.4-1.9-0.7-3-1.1c0.5-0.7,1.1-0.9,2-0.6c1.2,0.4,2.5,0.7,3.7,1c0-0.1,0.1-0.2,0.1-0.3
			c-1.3-0.4-2.6-0.9-4-1.4c0.6-0.8,1.2-1.6,1.8-2.3c0.1-0.1,0.4-0.2,0.5-0.2c3.8-0.1,7.5,0.5,10.8,2.7c-0.3,0.7-0.3,1.7-1.2,1.7
			c-0.1,0.4,0,0.9-0.2,1.2c-0.8,1.3-1.8,2.6-2.7,3.9c-3.4-1.9-6.8-3.6-10.4-4.6c0,0.1-0.1,0.2-0.1,0.3c1.1,0.4,2.2,0.8,3.3,1.2
			c-1.3,0.9-3.6,0.5-3.8,2.8c-0.5,0-0.8,0-1.4,0c0.7,0.3,1.2,0.5,1.7,0.8c0,0.1-0.1,0.2-0.1,0.2c-0.9-0.3-1.8-0.5-2.8-0.7
			C-328.4,325.3-329.9,325-331.3,324.8C-331.3,324.7-331.3,324.8-331.3,324.8z"/>
		<path class="st0" d="M-293.7,340c3.5,0.8,6.9,1.6,10.2,2.4c0.8,0.2,1.6,0.3,2.4,0.6c0.6,0.2,1,0.7,1.6,0.9c1.3,0.3,2.7,0.5,4,0.8
			c0.2,0,0.5,0.2,0.9,0.4c-1.4,0.8-2.8,1.1-4.3,0.6c0.1,0.3,0.2,0.5,0.3,0.8c-1.5,0.1-2.9,0.3-4.4,0.3c-1.9,0-3.9-0.4-5.7-0.2
			c-2,0.3-3.8,0-5.7-0.5c-0.1,0-0.3-0.1-0.5-0.2C-294.4,343.9-294.1,342-293.7,340z M-285.8,343.7c0,0.1-0.1,0.2-0.1,0.3
			c1,0.3,2,0.5,2.9,0.8c0-0.1,0.1-0.2,0.1-0.3C-283.9,344.2-284.8,344-285.8,343.7z"/>
		<path class="st0" d="M-308.1,342.7c0.4-2,0.7-4,1.1-5.8c2.7,0.6,5.3,1.2,7.9,1.8c0.2,1.7-0.8,5.6-1.5,5.8c0.9,0.5,0.3,1.2,0.2,1.8
			c-0.1,0.2-0.6,0.4-1,0.4c-2.1,0-4.3,0-6.4,0c-0.3,0-0.6,0-1-0.1c0.2-1.1,0.4-2.2,0.6-3.4c2,0.5,3.9,1.1,5.8,1.6
			c0-0.1,0.1-0.2,0.1-0.3C-304.1,343.4-306.2,343.4-308.1,342.7z"/>
		<path class="st0" d="M-290.8,326c1.9,0.5,4,1,6.1,1.6c0.5,0.2,0.9,0.8,1.3,1.2c0.1,0,0.2,0,0.4,0c-0.3,0.7-0.7,1.4-0.8,2.1
			c-0.2,0.8-0.1,1.7-0.2,2.6c-0.1,0.9-0.3,1.7-0.5,2.7c-2.8-0.3-5.4-1.1-7.8-2.3c0.2-1.1,0.3-2.2,0.5-3.3c2.3,0.6,4.5,1.1,6.7,1.7
			c0-0.1,0.1-0.2,0.1-0.3c-2-0.5-3.9-0.9-5.9-1.4c-0.3-0.1-0.6-0.3-0.9-0.5c0.1-0.1,0.1-0.2,0.2-0.3c2.4,0.6,4.7,1.3,7.1,1.9
			c0-0.1,0-0.2,0.1-0.3c-2.3-0.7-4.7-1.4-7.2-2.1C-291.4,328.1-291.1,327-290.8,326z"/>
		<path class="st0" d="M-263.6,332.7c-0.8,1.3-0.5,3.1-2,3.7c-0.1,0.5-0.1,0.9-0.2,1.3c-0.2,0.6-0.6,0.4-1.1,0.3
			c-2.1-0.4-4.3-0.8-6.4-1.2c-0.3-0.1-0.7-0.2-0.9-0.2c0.7-1.4,1.5-2.8,2.3-4.3c0.8,0.2,1.8,0.4,2.9,0.7c0-0.1,0-0.1,0.1-0.2
			c-0.6-0.2-1.3-0.4-1.9-0.6c-0.3-0.1-0.6-0.4-0.9-0.6c-0.1-0.1-0.2-0.4-0.1-0.4c0.1-0.1,0.4-0.2,0.5-0.2
			C-268.9,331.4-266.4,332-263.6,332.7z"/>
		<path class="st0" d="M-297.7,333.7c-0.4,0.5-0.7,0.9-0.9,1.2c1,0.9-0.3,2.1-0.1,3.4c-2.8-0.7-5.4-1.3-8.1-2c0.2-1,0.4-2,0.6-3.2
			c2.2,0.6,4.4,1.1,6.5,1.7c0-0.1,0.1-0.2,0.1-0.4c-2.2-0.5-4.3-1-6.6-1.6c0.1-0.4,0.1-0.8,0.2-1.3
			C-303.3,332.3-300.7,332.9-297.7,333.7z"/>
		<path class="st0" d="M-260.4,338.2c-0.3-0.2-0.5-0.5-0.9-0.8c0.2-1.2,0.5-2.5,0.7-3.8c2.7,0.7,5.2,1.3,7.9,2
			c-0.3,1.3-0.5,2.5-0.7,3.7C-255.9,338.9-258.2,338.5-260.4,338.2C-260.5,338.2-260.4,338.2-260.4,338.2z"/>
		<path class="st0" d="M-251.4,339.7c4.6,0,9.3,0,14.1,0c-0.2,1.1-0.4,2.2-0.6,3.5c-1.8-0.5-3.5-1.1-5.2-1.6
			c-0.3-1.2-1.5-1.2-2.4-1.6c-0.2-0.1-0.4-0.1-0.7,0.1c0.6,0.3,1.3,0.6,2,0.9c0,0.2-0.1,0.4-0.1,0.7c-2.4-0.6-4.8-1.2-7.1-1.8
			C-251.5,339.9-251.4,339.8-251.4,339.7z"/>
		<path class="st0" d="M-210.3,330.3c0.5,0.4,0.9,0.7,1.3,1c0,0.1-0.1,0.2-0.1,0.2c-0.5-0.1-1-0.2-1.6-0.4
			C-210.6,330.9-210.5,330.7-210.3,330.3z"/>
	</g>
	<text transform="matrix(1 0 0 1 -238.8707 312.8456)" class="st0 st2 st3 st4">2022</text>
</g>
</svg>
